<svg xmlns="http://www.w3.org/2000/svg" viewBox="0 0 596.7 83.3">
  <path fill="#795d72" d="m10 33.5 4.3.1q4.3 0 16.8-2.7 12.6-2.8 43.5-7.8 31-5 81.2-7.7 50.1-2.6 115.5-4.2t124.8.2q59.5 1.7 95.8 3.9t53.2 4q17 2 21.7 3.2l5 1.4q.4 0 .7.2.3.1.5.4l.4.4.3.6.2.6v.6l-.1.7-.3.5-.5.5-.5.4-.6.2h-.6l-15.8 2.4q-15.5 2.3-47.1 3-31.6.7-85.8 1-54.2.3-114.1 1.3-59.9 1.1-106.9 3-47 1.9-74 5.5-27 3.7-40 5.7t-18.4 3.4q-5.4 1.3-7.2 2.6-1.8 1.3-2.2 1.3H59l-.7-.1-.7-.4-.5-.5-.5-.6-.2-.7-.1-.8v-.8l.3-.7.5-.6.5-.5.7-.3q.4-.2 2.7.3 2.3.5 9.1-.8Q77 50.5 98 49.1q21-1.5 53.5-2 32.4-.7 65.3-.4l56 .3 34.6.2q11.4.1 13.1 1.3 1.8 1.1 2.2 1.2l.7.2.7.3.6.5.4.7.3.7v1.5l-.3.7-.4.7-.6.5-.7.3-.8.2q-.3 0-4.2 1.7-4 1.7-11.7 4-7.9 2.4-13 4.3-5 2-1.8 2l6.9.4q3.6.3 4.4.5.7.2 1.3.7.6.4 1 1 .5.7.7 1.4.2.7.2 1.5 0 .7-.3 1.5-.2.7-.7 1.3-.5.6-1.2 1-.6.4-1.4.6h-1.4q-.8 0-1.5-.3t-1.3-.8l-1-1.2-.4-1.4q-.2-.8 0-1.5 0-.8.4-1.5l.9-1.2 1.2-.9q.7-.3 1.5-.4h1.5l1.4.6q.6.4 1.1 1 .6.5.9 1.2.3.7.3 1.5l-.1 1.5-.6 1.4-1 1q-.6.6-1.4.8-.7.3-1.4.3h-.8l-1.6-.4-4-.8q-2.5-.5-5.8-1.4-3.3-1-5.4-2.4-2-1.4-2-4.8 0-3.3 2.3-4.3 2.2-1 7.4-2.9 5.3-2 12.8-4.2 7.4-2.3 12.5-4.7 5-2.5 5.4-2.4l.7.2.7.3.6.5.4.7.3.7v1.5l-.3.7-.4.7-.6.5-.7.3-.8.2q-.3 0-2.4-1.7-2-1.8-13.2-1.7h-34.1l-56-.3q-32.9-.2-65.2.5-32.3.6-53 2.1L69 57.3l-9.2 1H59l-.7-.2-.7-.4-.5-.5-.5-.6-.2-.7-.1-.8v-.8l.3-.7.5-.6.5-.5.7-.3 2.3-1q1.9-.8 7.5-2.2 5.7-1.3 18.7-3.4 13-2 40.3-5.8 27.3-3.7 74.3-5.6 47.1-2 107-3 60-1.2 114-1.5 54.2-.4 85.8-1.2 31.5-.8 44.3-1.3 12.7-.4 15.9-2 3.2-1.4 3.5-1.3l.6.2q.3.1.5.4l.4.4.3.6.2.6v.6l-.1.7-.3.5-.5.5-.5.4-.6.2h-.6l-5-1.2q-4.8-1.3-21.6-3.1-16.8-1.9-53-4-36.3-2.2-95.6-3.9-59.3-1.7-124.6 0-65.3 1.5-115.2 4.2-49.8 2.6-80.6 7.7-30.7 5-43.9 8t-17.5 3H9.6l-.7-.1-.7-.4-.5-.5-.4-.6-.3-.7-.1-.7v-.8l.4-.7.4-.6.5-.5.7-.3.7-.2h.4Z"/>
</svg>
