<?xml version="1.0" encoding="UTF-8" standalone="no"?>
<svg
   width="125.61127"
   height="33.804001"
   viewBox="0 0 33.354866 8.897271"
   version="1"
   id="svg1"
   xmlns="http://www.w3.org/2000/svg"
   xmlns:svg="http://www.w3.org/2000/svg"
   fill="var(--foreground)">
  <defs
     id="defs1" />
  <g
     id="kott_logo"
     transform="translate(-19.675938,-5.9176012)">
    <path
       d="m 28.853268,11.184076 c -0.13807,0 -0.250114,0.112043 -0.250114,0.250114 v 0.961181 c 0,0.138071 0.112044,0.250114 0.250114,0.250114 h 0.08475 c 0.138071,0 0.250114,0.112044 0.250114,0.250114 v 4.483964 c 0,0.183545 -0.0707,0.250114 -0.250114,0.250114 h -0.08475 c -0.13807,0 -0.250114,0.112044 -0.250114,0.250114 v 0.97255 c 0,0.138071 0.112044,0.250114 0.250114,0.250114 h 2.91145 c 0.138071,0 0.250114,-0.112043 0.250114,-0.250114 v -0.97255 c 0,-0.13807 -0.112043,-0.250114 -0.250114,-0.250114 h -0.08475 c -0.214075,0 -0.250114,-0.04773 -0.250114,-0.250114 v -0.712101 c 0,-0.159032 0.06829,-0.310241 0.187069,-0.415995 l 0.427881,-0.381372 c 0.09716,-0.08651 0.249236,-0.06364 0.316776,0.04754 l 0.910022,1.498616 c 0.05694,0.09373 -0.01074,0.213424 -0.120406,0.213424 h -0.236161 c -0.138071,0 -0.250114,0.112044 -0.250114,0.250114 v 0.97255 c 0,0.138071 0.112043,0.250114 0.250114,0.250114 h 3.723803 c 0.138071,0 0.250114,-0.112043 0.250114,-0.250114 v -0.97255 c 0,-0.13807 -0.112043,-0.250114 -0.250114,-0.250114 h -0.128157 c -0.155323,0 -0.299149,-0.08049 -0.380339,-0.212907 l -1.927014,-3.141927 c -0.07574,-0.123528 -0.05232,-0.283826 0.05529,-0.380855 l 1.198893,-1.081071 c 0.119524,-0.107765 0.275219,-0.167432 0.436149,-0.167432 h 0.128158 c 0.13807,0 0.249597,-0.112043 0.249597,-0.250114 v -0.961181 c 0,-0.138071 -0.111527,-0.250114 -0.249597,-0.250114 h -3.106787 c -0.138071,0 -0.250114,0.112043 -0.250114,0.250114 v 0.961181 c 0,0.138071 0.112043,0.250114 0.250114,0.250114 H 33.1946 c 0.08868,-2e-6 0.131008,0.109062 0.06563,0.168982 L 31.614336,14.3229 c -0.07055,0.06466 -0.184483,0.01457 -0.184485,-0.08113 v -1.346171 c 0,-0.13807 0.112044,-0.250114 0.250114,-0.250114 h 0.08475 c 0.138071,0 0.250114,-0.112043 0.250114,-0.250114 V 11.43419 c 0,-0.138071 -0.112043,-0.250114 -0.250114,-0.250114 z"
       id="K"
       transform="translate(0,-4.7079847)" />
    <path
       d="m 40.514567,12.576661 c -0.10643,-3.99e-4 -0.213454,0.0023 -0.294405,0.0085 -0.398346,0.03114 -0.781053,0.126355 -1.148632,0.285312 -0.148892,0.06438 -0.382842,0.185409 -0.520041,0.27167 -0.339999,0.213782 -0.633429,0.486584 -0.879804,0.817854 -0.09648,0.129717 -0.235153,0.352387 -0.30634,0.497308 -0.191141,0.389132 -0.301887,0.828873 -0.333054,1.318567 -0.01022,0.160953 -0.01022,0.422742 0,0.583696 0.03174,0.497214 0.145518,0.941315 0.342716,1.332779 0.07263,0.144199 0.21406,0.365854 0.312023,0.494464 0.247134,0.324432 0.542859,0.590056 0.887193,0.797392 0.13885,0.08362 0.376139,0.199122 0.52686,0.25917 0.376852,0.150142 0.770774,0.23965 1.182735,0.26826 0.162009,0.01122 0.426177,0.01106 0.588241,5.68e-4 0.426475,-0.0277 0.825438,-0.116537 1.196943,-0.266555 0.150429,-0.06075 0.385685,-0.179726 0.522883,-0.265988 0.333134,-0.209471 0.614892,-0.471976 0.845135,-0.788301 0.09512,-0.130686 0.229585,-0.356369 0.298382,-0.502421 0.178232,-0.378363 0.282095,-0.80403 0.312024,-1.276511 0.01022,-0.160957 0.01045,-0.422689 0.0012,-0.583695 -0.02923,-0.497439 -0.13499,-0.944383 -0.31657,-1.340736 -0.06725,-0.146767 -0.198833,-0.374022 -0.291563,-0.5064 -0.23145,-0.330408 -0.514845,-0.605132 -0.850818,-0.822967 -0.135968,-0.08816 -0.369113,-0.210322 -0.518335,-0.273946 -0.386498,-0.164774 -0.807788,-0.264574 -1.263441,-0.298383 -0.08097,-0.0061 -0.186845,-0.0092 -0.29327,-0.0097 z m -0.720665,1.571484 a 0.18250734,0.18250734 0 0 1 0.09378,0.05002 l 2.020482,2.020481 a 0.20570015,0.20570015 0 0 1 -0.12731,0.350104 l -0.292132,0.02614 a 0.23193489,0.23193489 0 0 0 -0.177892,0.350671 l 0.359765,0.594493 a 0.24795611,0.24795611 0 0 1 -0.09378,0.346125 l -0.132422,0.07218 a 0.23290385,0.23290385 0 0 1 -0.318279,-0.09776 l -0.342145,-0.663834 a 0.31696005,0.31696005 0 0 0 -0.470026,-0.109698 l -0.383636,0.28304 a 0.22243675,0.22243675 0 0 1 -0.354081,-0.179025 v -2.863913 a 0.18250734,0.18250734 0 0 1 0.217679,-0.179032 z"
       id="o"
       transform="translate(0,-4.7079847)" />
    <path
       d="m 44.979796,11.978936 v 0.598938 c 0,0.152551 -0.123792,0.276346 -0.276342,0.276346 h -0.09365 c -0.152549,0 -0.276343,0.123793 -0.276343,0.276344 v 1.074548 c 0,0.152551 0.123794,0.276345 0.276343,0.276345 h 0.09365 c 0.15255,0 0.276342,0.123221 0.276342,0.275773 V 16.433 c 0,0.152552 0.003,0.399725 0.0092,0.55212 0.01491,0.375293 0.04022,0.693084 0.0765,0.953505 0.02104,0.151065 0.06843,0.39548 0.12561,0.536701 0.05548,0.137003 0.130485,0.260341 0.224389,0.370555 0.09878,0.115932 0.2991,0.266804 0.439069,0.326587 0.198618,0.08482 0.44497,0.137 0.739961,0.156445 0.152197,0.01 0.400319,0.008 0.552117,-0.0062 0.05647,-0.0052 0.281236,-0.02835 0.345441,-0.03655 0.440946,-0.0617 0.667035,-0.190098 0.826746,-0.462478 0.176956,-0.301806 0.108719,-0.717475 0,-1.049998 -0.02763,-0.08431 -0.08214,-0.16719 -0.157016,-0.214681 -0.277301,-0.175904 -0.839859,0.432038 -0.967207,-0.187273 -0.0306,-0.149173 -0.02287,-0.324745 -0.02055,-0.386541 0.0054,-0.152441 0.0078,-0.399568 0.0078,-0.552118 v -1.67577 c 0,-0.152552 0.01,-0.260926 0.276352,-0.260926 h 0.58402 c 0.15255,0 0.27634,-0.138644 0.27634,-0.291192 v -1.074552 c 0,-0.15255 -0.12379,-0.276341 -0.27634,-0.276341 h -0.584123 c -0.186493,0 -0.276353,-0.07858 -0.276353,-0.276347 v -0.66858 -0.668596 c 0,-0.196224 -0.462489,-0.03919 -1.085629,0.122574 -1.010724,0.303891 -1.116348,0.450677 -1.116348,0.615693 z"
       id="t1"
       transform="translate(0,-4.7079847)" />
    <path
       d="m 49.583167,11.978936 v 0.598938 c 0,0.152551 -0.123794,0.276346 -0.276345,0.276346 h -0.09365 c -0.152551,0 -0.276345,0.123793 -0.276345,0.276344 v 1.074548 c 0,0.152551 0.123794,0.276345 0.276345,0.276345 h 0.09365 c 0.152551,0 0.276345,0.123221 0.276345,0.275773 V 16.433 c 0,0.152552 0.003,0.399725 0.0092,0.55212 0.01491,0.375293 0.04022,0.693084 0.0765,0.953505 0.02103,0.151065 0.06844,0.39548 0.125615,0.536701 0.05547,0.137003 0.130482,0.260341 0.224384,0.370555 0.09878,0.115932 0.299094,0.266804 0.439073,0.326587 0.198612,0.08482 0.444965,0.137 0.739945,0.156445 0.152198,0.01 0.400318,0.008 0.552118,-0.0062 0.05647,-0.0052 0.281234,-0.02835 0.345439,-0.03655 0.440946,-0.0617 0.667037,-0.190098 0.826746,-0.462478 0.176958,-0.301806 0.108719,-0.717475 0,-1.049998 -0.02762,-0.08431 -0.08214,-0.16719 -0.157013,-0.214681 -0.277304,-0.175904 -0.839863,0.432038 -0.967209,-0.187273 -0.0306,-0.149173 -0.02287,-0.324745 -0.02056,-0.386541 0.0054,-0.152441 0.0078,-0.399568 0.0078,-0.552118 v -1.67577 c 0,-0.152552 0.01,-0.260926 0.276351,-0.260926 h 0.584092 c 0.152551,0 0.276341,-0.138644 0.276341,-0.291192 v -1.074552 c 0,-0.15255 -0.12379,-0.276341 -0.276341,-0.276341 h -0.584162 c -0.186493,0 -0.276354,-0.07858 -0.276354,-0.276347 v -0.66858 -0.668596 c 0,-0.196224 -0.46249,-0.03919 -1.085617,0.122574 -1.010722,0.303891 -1.116346,0.450677 -1.116346,0.615693 z"
       id="t2"
       transform="translate(0,-4.7079847)" />
    <path
       id="kotten"
       transform="matrix(0.76967214,0.44437042,-0.44437042,0.76967214,11.316519,-7.7962785)"
       d="m 22.80791,4.7304606 -0.08475,0.00207 c -0.0594,0.00123 -0.119199,0.00303 -0.178284,0.00775 -0.04683,0.00374 -0.122217,0.019953 -0.15968,0.048059 -0.08844,0.066349 -0.13238,0.1843611 -0.151929,0.2997233 -0.0078,0.046276 -0.01393,0.1224772 -0.01499,0.1694987 -0.0027,0.1185834 0.0095,0.237963 0.04599,0.3498495 0.01454,0.044551 0.0441,0.1147412 0.06098,0.1586466 0.03523,0.091617 0.07218,0.1827842 0.115756,0.2702678 0.02095,0.042056 0.05831,0.041684 0.07906,-5.168e-4 0.114417,-0.2324915 0.17968,-0.4897193 0.304375,-0.7167521 0.02134,-0.03885 0.05935,-0.1027113 0.08423,-0.142627 0.07113,-0.1141001 0.149897,-0.2234827 0.21084,-0.3436482 0.02096,-0.041325 -9.23e-4,-0.090201 -0.04754,-0.095085 -0.05538,-0.0058 -0.120297,-0.00436 -0.180868,-0.00465 -0.0458,-2.178e-4 -0.0832,-0.00259 -0.0832,-0.00258 z m 0.141594,1.2459188 c -0.04171,0.0044 -0.08425,0.035168 -0.100769,0.072864 -0.04941,0.1127423 -0.103997,0.222665 -0.155546,0.3343465 -0.01967,0.042618 -0.01799,0.1114315 0.0031,0.153479 0.104539,0.2084581 0.211587,0.4165127 0.337447,0.6113322 0.02547,0.039425 0.06913,0.1017449 0.09715,0.1395264 0.09672,0.1304083 0.196703,0.2580038 0.299723,0.3829223 0.02993,0.03629 0.06807,0.030141 0.08578,-0.013436 0.05361,-0.1319023 0.112026,-0.2620213 0.153996,-0.3984253 0.01372,-0.044605 0.03381,-0.1181542 0.04702,-0.1632976 0.0684,-0.2336041 0.134559,-0.4677081 0.201539,-0.7017659 0.01294,-0.045222 0.05037,-0.1168304 0.04547,-0.1627808 -0.0014,-0.01266 -0.006,-0.02309 -0.01395,-0.032039 -0.03108,-0.034752 -0.115247,-0.041948 -0.160197,-0.05581 -0.268738,-0.082881 -0.544007,-0.1434292 -0.823205,-0.1669149 -0.0059,-4.925e-4 -0.01161,-6.291e-4 -0.01757,0 z m -0.953947,0.00465 c -0.313703,0.033239 -0.624421,0.1004207 -0.925525,0.1989543 -0.0447,0.014629 -0.07017,0.063776 -0.05736,0.1090372 0.07871,0.2781956 0.157848,0.5567249 0.239262,0.8340576 0.01325,0.045133 0.03308,0.118902 0.04702,0.1638143 0.03959,0.1273807 0.09488,0.2485446 0.145728,0.3715536 0.01782,0.043111 0.05594,0.048766 0.08578,0.012402 0.172689,-0.2104483 0.342253,-0.425057 0.481107,-0.6619751 0.02369,-0.04042 0.06117,-0.1062795 0.08423,-0.1472778 0.05967,-0.1060988 0.114983,-0.2148662 0.169499,-0.3240112 0.02101,-0.042065 0.0228,-0.111282 0.0031,-0.1539958 C 22.217208,6.2725943 22.162531,6.1632764 22.113369,6.051309 22.094499,6.008334 22.042329,5.976073 21.995547,5.981029 Z m 2.27738,0.5090128 c -0.04034,0.00359 -0.07769,0.0375 -0.08733,0.077515 -0.05313,0.220557 -0.107555,0.4409231 -0.182935,0.6542236 -0.01564,0.044252 -0.0421,0.1158835 -0.05788,0.160197 -0.0657,0.1844954 -0.137119,0.366517 -0.216008,0.5451863 -0.019,0.04303 -0.01013,0.1064998 0.02119,0.1415935 0.314975,0.3528924 0.662894,0.6730356 1.036629,0.9549804 0.03755,0.028328 0.0839,0.01641 0.102319,-0.026872 0.141102,-0.3315335 0.256638,-0.6745422 0.351917,-1.0237101 0.01239,-0.045375 0.03332,-0.1188178 0.04703,-0.1638143 0.04827,-0.1584293 0.09479,-0.3180351 0.120923,-0.4821411 0.0074,-0.046267 0.02247,-0.121065 0.02687,-0.1679485 0.0034,-0.035319 7.5e-4,-0.067977 -0.01602,-0.094051 C 25.395252,7.027282 25.321002,6.996676 25.282183,6.970116 24.971921,6.7578618 24.58269,6.5302583 24.290512,6.4905587 c -0.0058,-7.889e-4 -0.01181,-0.00103 -0.01757,-5.168e-4 z m -3.578593,0.027389 c -0.0056,4.186e-4 -0.0114,0.00147 -0.01705,0.0031 -0.386045,0.1118304 -0.754587,0.2905465 -1.086239,0.5270997 -0.03829,0.027313 -0.06494,0.088226 -0.05891,0.1348754 0.02001,0.1548225 0.04844,0.3087038 0.09095,0.45837 0.01285,0.045228 0.03592,0.1181414 0.04909,0.1632975 0.07995,0.2740414 0.153605,0.5501801 0.252181,0.8175212 0.01621,0.043967 0.04337,0.1153388 0.06046,0.1591634 0.02827,0.072492 0.05743,0.1439751 0.08785,0.2154907 0.01841,0.043285 0.06477,0.055718 0.102319,0.027388 0.373731,-0.2819389 0.721141,-0.6020971 1.036112,-0.9549804 0.03132,-0.035091 0.04097,-0.098969 0.02222,-0.1421102 -0.161878,-0.3725125 -0.306421,-0.7544184 -0.406176,-1.1508342 -0.01146,-0.045549 -0.0298,-0.1196379 -0.04082,-0.1653646 -0.0024,-0.00997 -0.0048,-0.019994 -0.0072,-0.029972 -0.0082,-0.034309 -0.03574,-0.058183 -0.06821,-0.062528 -0.0054,-7.25e-4 -0.01091,-9.354e-4 -0.01654,-5.167e-4 z M 22.480798,6.84661 c -0.01473,1.7e-5 -0.02941,0.010439 -0.04082,0.031006 -0.217234,0.3915861 -0.473182,0.7583066 -0.753442,1.1022583 -0.02971,0.036456 -0.03722,0.1001178 -0.01602,0.1421102 0.216241,0.4283853 0.46862,0.837046 0.758093,1.2143961 0.02863,0.037318 0.07575,0.037318 0.104387,0 0.289536,-0.3772948 0.542147,-0.7858485 0.758093,-1.2143961 0.02116,-0.042002 0.0132,-0.1056658 -0.01654,-0.1421102 C 22.994022,7.6361067 22.73947,7.268815 22.521624,6.877616 22.510174,6.85707 22.495534,6.846593 22.480794,6.84661 Z m 3.18947,0.8505941 c -0.02426,0.00198 -0.04391,0.020003 -0.05064,0.050126 -0.0539,0.240726 -0.115325,0.4798192 -0.197404,0.7115845 -0.01568,0.044296 -0.04107,0.1158794 -0.05684,0.160197 -0.06552,0.1841346 -0.140035,0.3648084 -0.216524,0.5441528 -0.01845,0.043254 -0.0014,0.099198 0.03824,0.1245402 0.312399,0.1997684 0.639644,0.3727117 0.973584,0.5286499 0.04261,0.019895 0.08752,-8.574e-4 0.100769,-0.045992 0.08015,-0.2730554 0.166112,-0.5444672 0.234611,-0.8211385 0.01128,-0.04557 0.02917,-0.11954 0.03979,-0.1653646 0.01742,-0.075166 0.03355,-0.1507185 0.04909,-0.2263428 0.0095,-0.046076 -0.0076,-0.1130497 -0.03876,-0.1483114 -0.243368,-0.2756621 -0.526606,-0.5118966 -0.835091,-0.7012491 -0.01002,-0.00615 -0.02037,-0.00981 -0.02997,-0.010852 -0.0036,-3.895e-4 -0.0074,-2.835e-4 -0.01085,0 z m -6.389274,0.00413 c -0.0097,0.00106 -0.01945,0.00467 -0.02946,0.010852 -0.308977,0.1909424 -0.587667,0.4331709 -0.834057,0.7069336 -0.03145,0.03494 -0.04933,0.1012158 -0.03979,0.1472778 0.07029,0.3395822 0.161371,0.6739228 0.262516,1.0045898 0.01376,0.04497 0.03829,0.1173719 0.04806,0.1632976 0.0087,0.041028 0.01731,0.082262 0.03617,0.1002523 0.03048,0.029076 0.109073,-0.033764 0.151411,-0.05426 0.30697,-0.1486079 0.609658,-0.3077649 0.898654,-0.4924764 0.0396,-0.025313 0.05627,-0.081315 0.03772,-0.1245402 C 19.681429,8.8585158 19.56248,8.547626 19.464436,8.2294675 c -0.01385,-0.044943 -0.03444,-0.1182158 -0.04599,-0.1638143 -0.02643,-0.1043505 -0.05093,-0.2091925 -0.07493,-0.3141927 -0.0079,-0.034391 -0.03352,-0.053318 -0.06253,-0.050126 z m 2.106331,0.6485393 c -0.01338,0.00189 -0.02674,0.00932 -0.03876,0.022221 -0.317556,0.3408112 -0.665489,0.6488676 -1.035079,0.9250082 -0.03768,0.028152 -0.04995,0.08407 -0.02687,0.1250569 0.113759,0.2020395 0.222921,0.4073649 0.343132,0.6051315 0.04007,0.06592 0.08146,0.130949 0.12454,0.19482 0.02615,0.03877 0.06962,0.101028 0.09663,0.139526 0.07528,0.107268 0.153478,0.212363 0.234094,0.315227 0.02901,0.03703 0.08326,0.04384 0.120406,0.01499 0.367096,-0.285142 0.708097,-0.608038 1.016475,-0.9622157 0.0309,-0.035474 0.03154,-0.094189 0.0026,-0.1312581 -0.294961,-0.3776222 -0.555242,-0.7849931 -0.77928,-1.2133627 -0.0109,-0.020839 -0.02698,-0.03279 -0.04444,-0.03514 -0.0044,-5.865e-4 -0.009,-6.289e-4 -0.01344,0 z m 2.173511,0 c -0.01749,0.00237 -0.03406,0.014297 -0.04496,0.03514 -0.223939,0.4284067 -0.483811,0.8357643 -0.778763,1.2133627 -0.02894,0.037066 -0.0283,0.095784 0.0026,0.1312581 0.30838,0.3541718 0.649382,0.6770708 1.016476,0.9622148 0.03714,0.02885 0.0914,0.02204 0.120406,-0.01499 0.242784,-0.309875 0.461254,-0.640499 0.651123,-0.9890867 0.0225,-0.041306 0.05845,-0.1084247 0.08165,-0.1493449 0.02188,-0.038613 0.04434,-0.077606 0.06614,-0.116272 0.0231,-0.040965 0.01029,-0.096902 -0.02739,-0.1250569 -0.369507,-0.2760929 -0.716973,-0.5854987 -1.035079,-0.9255249 -0.01606,-0.017173 -0.0347,-0.024074 -0.05219,-0.021704 z m 3.233394,0.7828979 c -0.0017,1.81e-5 -0.0036,1.68e-4 -0.0052,5.168e-4 -0.01292,0.00279 -0.02334,0.015913 -0.02894,0.038757 -0.05733,0.2342258 -0.128474,0.4645533 -0.211874,0.6898804 -0.01633,0.044114 0.0059,0.091812 0.05064,0.1064534 0.181824,0.059555 0.364452,0.1161701 0.546737,0.1741491 0.04482,0.01425 0.07455,-0.0116 0.06615,-0.05788 -0.02998,-0.1650235 -0.06503,-0.3296171 -0.155066,-0.5353969 -0.09004,-0.2057798 -0.156163,-0.3001778 -0.225273,-0.3921952 -0.01235,-0.016451 -0.02542,-0.024415 -0.03721,-0.024288 z m -8.624796,5.168e-4 c -0.0112,3.024e-4 -0.02383,0.009 -0.03566,0.025838 -0.07039,0.1002131 -0.141651,0.1998698 -0.22909,0.4059913 -0.08744,0.2061215 -0.124019,0.3615657 -0.1528,0.5184996 -0.0085,0.04627 0.02183,0.07213 0.06666,0.05788 0.181366,-0.05766 0.3627,-0.113953 0.543636,-0.173116 0.0447,-0.014618 0.06745,-0.062326 0.05116,-0.1064534 -0.08324,-0.2254369 -0.15371,-0.4555542 -0.210839,-0.6898804 -0.0056,-0.02285 -0.01612,-0.03589 -0.02842,-0.038241 -0.0015,-2.937e-4 -0.0031,-5.599e-4 -0.0047,-5.167e-4 z m 1.776635,0.4237467 c -0.0039,-1.68e-5 -0.0079,4.273e-4 -0.01189,0.00103 -0.01053,0.00162 -0.02111,0.00561 -0.03101,0.011886 -0.318683,0.20132 -0.648534,0.3858012 -0.993221,0.5322672 -0.04326,0.01837 -0.06199,0.06705 -0.04186,0.109554 0.08507,0.179658 0.167124,0.361237 0.260449,0.536401 0.02207,0.04143 0.05873,0.108267 0.08165,0.149345 0.121512,0.217745 0.253532,0.428881 0.395325,0.63252 0.02688,0.03856 0.08412,0.05469 0.127124,0.03566 0.372414,-0.164874 0.734471,-0.356397 1.07642,-0.583427 0.03918,-0.02601 0.04691,-0.07755 0.01809,-0.114721 -0.306606,-0.395328 -0.582155,-0.818736 -0.813387,-1.2676228 -0.01413,-0.027436 -0.04022,-0.042774 -0.0677,-0.042891 z m 5.068942,0 c -0.0039,-5.6e-6 -0.0076,4.088e-4 -0.01137,0.00103 -0.02286,0.00375 -0.04367,0.018349 -0.05581,0.041858 -0.231744,0.4487602 -0.507011,0.8723902 -0.813904,1.2676232 -0.02884,0.03715 -0.02106,0.08865 0.01809,0.114721 0.341713,0.227531 0.70455,0.41843 1.076937,0.583427 0.04299,0.01904 0.100135,0.0029 0.127124,-0.03566 0.281622,-0.402046 0.521515,-0.835517 0.723987,-1.28726 0.0048,-0.01073 0.0083,-0.02304 0.01033,-0.03617 0.0061,-0.03927 -0.0011,-0.08419 -0.02997,-0.09922 -0.117367,-0.06106 -0.428283,-0.1734746 -1.002523,-0.5379513 -0.0099,-0.00626 -0.02054,-0.00976 -0.03101,-0.011369 -0.0039,-6.022e-4 -0.008,-0.00103 -0.01188,-0.00103 z M 22.480798,9.939445 c -0.02028,1e-6 -0.04073,0.00876 -0.05633,0.026355 -0.314685,0.355008 -0.660196,0.679744 -1.031978,0.966866 -0.03723,0.02875 -0.04266,0.08064 -0.01137,0.115755 0.313483,0.351909 0.659565,0.671865 1.031462,0.95343 0.0375,0.02839 0.09893,0.02839 0.136425,0 0.371898,-0.281565 0.71798,-0.601521 1.031462,-0.95343 0.03128,-0.03512 0.02534,-0.08701 -0.01189,-0.115755 -0.371784,-0.287123 -0.71729,-0.611858 -1.031978,-0.966866 -0.0156,-0.017594 -0.03553,-0.026356 -0.05581,-0.026355 z m 3.96875,0.326078 c -0.03148,0.002 -0.06212,0.02285 -0.07596,0.05529 -0.195636,0.458878 -0.433865,0.896702 -0.710034,1.306897 -0.02627,0.03902 -0.01244,0.08392 0.03204,0.09922 0.186885,0.06426 0.376507,0.118158 0.564307,0.179317 0.04462,0.01453 0.116655,0.0397 0.162264,0.05116 0.100312,0.02521 0.203978,0.03579 0.306441,0.05013 0.04609,0.0064 0.12143,0.01439 0.167949,0.02119 0.06768,0.0098 0.139602,0.02494 0.201021,0.02429 0.01104,-1.15e-4 0.02189,-0.0032 0.03204,-0.0088 0.01015,-0.0056 0.01963,-0.01392 0.02791,-0.02325 0.0164,-0.01862 0.02834,-0.04298 0.03152,-0.06615 0.06416,-0.468725 0.04052,-0.949625 -0.06304,-1.41025 -0.01032,-0.04589 -0.05638,-0.09267 -0.101803,-0.104903 -0.287836,-0.07753 -0.457178,-0.13688 -0.543636,-0.169499 -0.01021,-0.0039 -0.02052,-0.0053 -0.03101,-0.0047 z m -7.940083,10e-4 c -0.0116,-2.05e-4 -0.02358,0.0016 -0.03462,0.0057 -0.172263,0.06318 -0.347817,0.115652 -0.524515,0.163298 -0.0454,0.01224 -0.09187,0.05864 -0.102837,0.104386 -0.110429,0.460658 -0.14153,0.943843 -0.07545,1.414384 0.0065,0.04658 0.04936,0.09738 0.09612,0.09767 0.06736,4.14e-4 0.146705,-0.01605 0.220142,-0.02636 0.04414,-0.0062 0.117765,-0.01404 0.164331,-0.02067 0.104803,-0.01493 0.210353,-0.02692 0.312642,-0.05426 0.04493,-0.01201 0.11653,-0.03755 0.161231,-0.05219 0.17942,-0.05876 0.360924,-0.109933 0.539502,-0.171566 0.04434,-0.01531 0.06174,-0.06202 0.03927,-0.103353 L 18.595247,10.3172 c -0.01685,-0.031 -0.05099,-0.05003 -0.08578,-0.05064 z m 2.547648,0.931726 c -0.01725,7.35e-4 -0.03445,0.0057 -0.04909,0.0155 -0.172004,0.115712 -0.348567,0.223432 -0.529167,0.323494 -0.180472,0.09998 -0.365411,0.192552 -0.552421,0.27802 -0.04278,0.01954 -0.05315,0.06385 -0.02274,0.09973 0.181809,0.21453 0.3623,0.431351 0.561206,0.628385 0.03332,0.03301 0.08788,0.0859 0.121439,0.118856 0.06755,0.06632 0.136242,0.131342 0.206189,0.19482 0.03483,0.03166 0.0993,0.04338 0.143144,0.02636 0.419189,-0.16282 0.82398,-0.367189 1.206645,-0.610298 0.03967,-0.02523 0.04133,-0.06941 0.0041,-0.09819 -0.363782,-0.28146 -0.702759,-0.598627 -1.011825,-0.945161 -0.01565,-0.01756 -0.03757,-0.02811 -0.06046,-0.03101 -0.0057,-7.15e-4 -0.0113,-7.62e-4 -0.01705,-5.17e-4 z m 2.847371,0 c -0.0058,-2.46e-4 -0.01185,-2.08e-4 -0.01757,5.17e-4 -0.02288,0.0029 -0.04481,0.01346 -0.06046,0.03101 -0.309115,0.346637 -0.647515,0.663683 -1.011308,0.945161 -0.03724,0.02879 -0.03557,0.07296 0.0041,0.09819 0.382669,0.243111 0.787451,0.447476 1.206645,0.610298 0.04385,0.01703 0.107878,0.0053 0.142627,-0.02636 0.152396,-0.139034 0.300494,-0.283268 0.443383,-0.433048 0.03247,-0.03403 0.08404,-0.09038 0.115239,-0.125574 0.111816,-0.126135 0.221843,-0.253965 0.330729,-0.382922 0.01518,-0.01797 0.02015,-0.0382 0.01602,-0.05633 -0.0041,-0.01813 -0.01736,-0.03415 -0.03876,-0.04392 -0.187185,-0.08551 -0.371318,-0.177952 -0.551904,-0.27802 -0.18045,-0.100006 -0.357775,-0.207862 -0.529683,-0.323494 -0.01463,-0.0098 -0.0317,-0.01476 -0.04909,-0.0155 z m -4.410583,0.794783 c -0.01246,3e-4 -0.02461,0.0022 -0.03566,0.0062 -0.267172,0.09693 -0.539172,0.178719 -0.813904,0.248046 -0.04561,0.01151 -0.119843,0.02813 -0.165881,0.03772 -0.06155,0.01288 -0.123234,0.0261 -0.185002,0.03772 -0.04621,0.0087 -0.07372,0.05151 -0.06046,0.09663 0.0886,0.301551 0.207873,0.592828 0.352433,0.869198 0.0218,0.04168 0.07821,0.072 0.125057,0.0677 0.227821,-0.02078 0.455126,-0.04813 0.682646,-0.07235 0.04675,-0.005 0.122116,-0.01525 0.168465,-0.02326 0.289259,-0.05017 0.575645,-0.119178 0.856795,-0.206705 0.04491,-0.01398 0.05539,-0.05406 0.02377,-0.08888 L 19.5957,12.032808 c -0.02372,-0.02612 -0.06442,-0.04077 -0.101802,-0.03979 z m 5.973278,0 c -0.03605,-1.4e-4 -0.07406,0.0165 -0.0956,0.04444 -0.257705,0.334412 -0.542294,0.646319 -0.847493,0.93276 -0.0343,0.03219 -0.02583,0.06984 0.01912,0.08372 0.300208,0.09271 0.60551,0.168822 0.915189,0.21549 0.04649,0.007 0.122204,0.01567 0.168982,0.02067 0.208027,0.02204 0.415932,0.04794 0.624252,0.06666 0.04682,0.0042 0.10277,-0.02652 0.12454,-0.06821 0.144237,-0.276192 0.268132,-0.566207 0.349849,-0.869715 0.01222,-0.04537 -0.0168,-0.08855 -0.06304,-0.09715 -0.196878,-0.03644 -0.392217,-0.08219 -0.584977,-0.137977 -0.04518,-0.01308 -0.118209,-0.03468 -0.163298,-0.04806 -0.18393,-0.05459 -0.329277,-0.105686 -0.412894,-0.136425 -0.01088,-0.004 -0.0226,-0.0062 -0.03462,-0.0062 z m -2.986381,0.45682 c -0.02547,0 -0.05126,0.0066 -0.0708,0.01964 -0.380666,0.254847 -0.784564,0.470654 -1.203028,0.647506 -0.04333,0.01831 -0.04865,0.05658 -0.01137,0.08527 0.377921,0.290801 0.78339,0.541684 1.208195,0.748275 0.02102,0.01022 0.04886,0.01544 0.07648,0.0155 0.02779,0 0.05585,-0.0052 0.077,-0.0155 0.424805,-0.206591 0.830273,-0.457473 1.208195,-0.748275 0.03728,-0.02869 0.03196,-0.06696 -0.01137,-0.08527 -0.418468,-0.176858 -0.822353,-0.392653 -1.203028,-0.647506 -0.01954,-0.01304 -0.04481,-0.01964 -0.07028,-0.01964 z m 1.735295,0.84646 c -0.03985,0.0013 -0.08448,0.01531 -0.112138,0.03721 -0.275279,0.217936 -0.563632,0.417173 -0.863513,0.595313 -0.09984,0.0593 -0.201597,0.116516 -0.303857,0.171049 -0.04154,0.02213 -0.03988,0.05316 0.0041,0.06976 0.383342,0.144624 0.779005,0.256155 1.180289,0.328662 0.04629,0.0084 0.121311,0.02025 0.167949,0.02635 0.138231,0.01807 0.276994,0.03194 0.415995,0.04134 0.04693,0.0032 0.116257,-0.01688 0.153996,-0.04496 0.305963,-0.227722 0.580072,-0.502434 0.809253,-0.814938 0.02781,-0.03793 0.01277,-0.0778 -0.03307,-0.08837 L 24.2533,13.299447 c -0.01146,-0.0026 -0.02393,-0.0035 -0.03721,-0.0031 z m -3.469039,0.0047 c -0.013,5e-4 -0.02554,0.003 -0.03669,0.0067 -0.451097,0.15062 -0.914337,0.261669 -1.384412,0.319877 -0.04667,0.0058 -0.06307,0.04122 -0.03514,0.07906 0.11466,0.155341 0.24065,0.301328 0.375688,0.437183 0.135037,0.135854 0.279151,0.261608 0.430465,0.376721 0.03742,0.02847 0.106024,0.04899 0.152962,0.04599 0.317885,-0.02033 0.634539,-0.06542 0.944645,-0.14211 0.04565,-0.01129 0.119399,-0.03027 0.164848,-0.04237 0.223415,-0.05955 0.444179,-0.129337 0.660941,-0.211873 0.04392,-0.01674 0.04562,-0.04864 0.0041,-0.0708 -0.409599,-0.218732 -0.799717,-0.475139 -1.166854,-0.765845 -0.02766,-0.0219 -0.07158,-0.03426 -0.110588,-0.03256 z m 1.732194,1.046964 c -0.0325,0 -0.06503,0.0056 -0.08992,0.01602 -0.363324,0.152984 -0.735901,0.280571 -1.113627,0.38809 -0.191433,0.05448 -0.190593,0.130339 -0.0031,0.196887 0.418157,0.148412 0.806683,0.372268 1.14515,0.661459 0.04105,0.03508 0.105227,0.03512 0.146244,0 0.337997,-0.28937 0.726281,-0.513646 1.144117,-0.662492 0.180046,-0.06414 0.180382,-0.138212 -0.0036,-0.190169 -0.385163,-0.108767 -0.765509,-0.237802 -1.135848,-0.393775 -0.02488,-0.0105 -0.0569,-0.01602 -0.0894,-0.01602 z"
       style="display:inline;opacity:1;stroke-width:0.0782845;stroke-linecap:round;stroke-linejoin:round;paint-order:fill markers stroke" />
  </g>
</svg>
