<svg id="visual" viewBox="0 0 960 150" width="960" height="150" xmlns="http://www.w3.org/2000/svg" xmlns:xlink="http://www.w3.org/1999/xlink" version="1.1"><path d="M0 46L53.3 40.5C106.7 35 213.3 24 320 22.5C426.7 21 533.3 29 640 28C746.7 27 853.3 17 906.7 12L960 7L960 151L906.7 151C853.3 151 746.7 151 640 151C533.3 151 426.7 151 320 151C213.3 151 106.7 151 53.3 151L0 151Z" fill="#ffeedf"></path><path d="M0 31L53.3 33.3C106.7 35.7 213.3 40.3 320 43.8C426.7 47.3 533.3 49.7 640 52.5C746.7 55.3 853.3 58.7 906.7 60.3L960 62L960 151L906.7 151C853.3 151 746.7 151 640 151C533.3 151 426.7 151 320 151C213.3 151 106.7 151 53.3 151L0 151Z" fill="#fde4cf"></path><path d="M0 72L53.3 70C106.7 68 213.3 64 320 60C426.7 56 533.3 52 640 52.2C746.7 52.3 853.3 56.7 906.7 58.8L960 61L960 151L906.7 151C853.3 151 746.7 151 640 151C533.3 151 426.7 151 320 151C213.3 151 106.7 151 53.3 151L0 151Z" fill="#fcd9bf"></path><path d="M0 52L53.3 56.8C106.7 61.7 213.3 71.3 320 76.5C426.7 81.7 533.3 82.3 640 81.7C746.7 81 853.3 79 906.7 78L960 77L960 151L906.7 151C853.3 151 746.7 151 640 151C533.3 151 426.7 151 320 151C213.3 151 106.7 151 53.3 151L0 151Z" fill="#facfb0"></path><path d="M0 66L53.3 69.3C106.7 72.7 213.3 79.3 320 79.7C426.7 80 533.3 74 640 76.3C746.7 78.7 853.3 89.3 906.7 94.7L960 100L960 151L906.7 151C853.3 151 746.7 151 640 151C533.3 151 426.7 151 320 151C213.3 151 106.7 151 53.3 151L0 151Z" fill="#f9c4a2"></path><path d="M0 82L53.3 87C106.7 92 213.3 102 320 102.5C426.7 103 533.3 94 640 89.5C746.7 85 853.3 85 906.7 85L960 85L960 151L906.7 151C853.3 151 746.7 151 640 151C533.3 151 426.7 151 320 151C213.3 151 106.7 151 53.3 151L0 151Z" fill="#f8b994"></path><path d="M0 120L53.3 116.7C106.7 113.3 213.3 106.7 320 104.7C426.7 102.7 533.3 105.3 640 108.8C746.7 112.3 853.3 116.7 906.7 118.8L960 121L960 151L906.7 151C853.3 151 746.7 151 640 151C533.3 151 426.7 151 320 151C213.3 151 106.7 151 53.3 151L0 151Z" fill="#f6ae87"></path><path d="M0 127L53.3 126.3C106.7 125.7 213.3 124.3 320 122.3C426.7 120.3 533.3 117.7 640 118.7C746.7 119.7 853.3 124.3 906.7 126.7L960 129L960 151L906.7 151C853.3 151 746.7 151 640 151C533.3 151 426.7 151 320 151C213.3 151 106.7 151 53.3 151L0 151Z" fill="#f5a37b"></path><path d="M0 123L53.3 124.8C106.7 126.7 213.3 130.3 320 133.3C426.7 136.3 533.3 138.7 640 137.7C746.7 136.7 853.3 132.3 906.7 130.2L960 128L960 151L906.7 151C853.3 151 746.7 151 640 151C533.3 151 426.7 151 320 151C213.3 151 106.7 151 53.3 151L0 151Z" fill="#f3976f"></path></svg>