<?xml version="1.0" encoding="UTF-8" standalone="no"?>
<svg
   version="1.1"
   viewBox="0 0 630 630"
   id="svg456"
   width="630"
   height="630"
   xmlns="http://www.w3.org/2000/svg"
   xmlns:svg="http://www.w3.org/2000/svg">
  <g
     fill="#5b4856"
     id="g456"
     transform="translate(-90,-75)">
    <circle
       r="1"
       cx="405"
       cy="400"
       opacity="0.1"
       id="circle1" />
    <circle
       r="1"
       cx="404"
       cy="404"
       opacity="0.1"
       id="circle2" />
    <circle
       r="1"
       cx="401"
       cy="406"
       opacity="0.1"
       id="circle3" />
    <circle
       r="1"
       cx="397"
       cy="406"
       opacity="0.11"
       id="circle4" />
    <circle
       r="1"
       cx="393"
       cy="403"
       opacity="0.11"
       id="circle5" />
    <circle
       r="1"
       cx="392"
       cy="398"
       opacity="0.11"
       id="circle6" />
    <circle
       r="1"
       cx="395"
       cy="393"
       opacity="0.11"
       id="circle7" />
    <circle
       r="1"
       cx="400"
       cy="390"
       opacity="0.11"
       id="circle8" />
    <circle
       r="1"
       cx="407"
       cy="392"
       opacity="0.12"
       id="circle9" />
    <circle
       r="1"
       cx="411"
       cy="398"
       opacity="0.12"
       id="circle10" />
    <circle
       r="1"
       cx="410"
       cy="406"
       opacity="0.12"
       id="circle11" />
    <circle
       r="1"
       cx="405"
       cy="412"
       opacity="0.12"
       id="circle12" />
    <circle
       r="1"
       cx="396"
       cy="413"
       opacity="0.12"
       id="circle13" />
    <circle
       r="1"
       cx="388"
       cy="408"
       opacity="0.13"
       id="circle14" />
    <circle
       r="1"
       cx="386"
       cy="399"
       opacity="0.13"
       id="circle15" />
    <circle
       r="1"
       cx="389"
       cy="389"
       opacity="0.13"
       id="circle16" />
    <circle
       r="1"
       cx="398"
       cy="384"
       opacity="0.13"
       id="circle17" />
    <circle
       r="1"
       cx="409"
       cy="386"
       opacity="0.13"
       id="circle18" />
    <circle
       r="1"
       cx="416"
       cy="394"
       opacity="0.14"
       id="circle19" />
    <circle
       r="1"
       cx="417"
       cy="406"
       opacity="0.14"
       id="circle20" />
    <circle
       r="1.5"
       cx="410"
       cy="416"
       opacity="0.14"
       id="circle21" />
    <circle
       r="1.5"
       cx="397"
       cy="419"
       opacity="0.14"
       id="circle22" />
    <circle
       r="1.5"
       cx="385"
       cy="414"
       opacity="0.14"
       id="circle23" />
    <circle
       r="1.5"
       cx="379"
       cy="401"
       opacity="0.15"
       id="circle24" />
    <circle
       r="1.5"
       cx="383"
       cy="388"
       opacity="0.15"
       id="circle25" />
    <circle
       r="1.5"
       cx="394"
       cy="379"
       opacity="0.15"
       id="circle26" />
    <circle
       r="1.5"
       cx="409"
       cy="379"
       opacity="0.15"
       id="circle27" />
    <circle
       r="1.5"
       cx="421"
       cy="389"
       opacity="0.15"
       id="circle28" />
    <circle
       r="1.5"
       cx="424"
       cy="405"
       opacity="0.16"
       id="circle29" />
    <circle
       r="1.5"
       cx="416"
       cy="419"
       opacity="0.16"
       id="circle30" />
    <circle
       r="1.5"
       cx="401"
       cy="425"
       opacity="0.16"
       id="circle31" />
    <circle
       r="1.5"
       cx="384"
       cy="421"
       opacity="0.16"
       id="circle32" />
    <circle
       r="1.5"
       cx="374"
       cy="406"
       opacity="0.16"
       id="circle33" />
    <circle
       r="1.5"
       cx="375"
       cy="388"
       opacity="0.17"
       id="circle34" />
    <circle
       r="1.5"
       cx="388"
       cy="375"
       opacity="0.17"
       id="circle35" />
    <circle
       r="1.5"
       cx="407"
       cy="372"
       opacity="0.17"
       id="circle36" />
    <circle
       r="1.5"
       cx="423"
       cy="382"
       opacity="0.17"
       id="circle37" />
    <circle
       r="1.5"
       cx="430"
       cy="401"
       opacity="0.17"
       id="circle38" />
    <circle
       r="1.5"
       cx="423"
       cy="420"
       opacity="0.18"
       id="circle39" />
    <circle
       r="1.5"
       cx="406"
       cy="431"
       opacity="0.18"
       id="circle40" />
    <circle
       r="1.5"
       cx="385"
       cy="428"
       opacity="0.18"
       id="circle41" />
    <circle
       r="1.5"
       cx="370"
       cy="413"
       opacity="0.18"
       id="circle42" />
    <circle
       r="1.5"
       cx="368"
       cy="391"
       opacity="0.18"
       id="circle43" />
    <circle
       r="1.5"
       cx="381"
       cy="372"
       opacity="0.18"
       id="circle44" />
    <circle
       r="1.5"
       cx="403"
       cy="365"
       opacity="0.19"
       id="circle45" />
    <circle
       r="1.5"
       cx="424"
       cy="374"
       opacity="0.19"
       id="circle46" />
    <circle
       r="1.5"
       cx="436"
       cy="395"
       opacity="0.19"
       id="circle47" />
    <circle
       r="1.5"
       cx="432"
       cy="419"
       opacity="0.19"
       id="circle48" />
    <circle
       r="1.5"
       cx="413"
       cy="435"
       opacity="0.19"
       id="circle49" />
    <circle
       r="1.5"
       cx="387"
       cy="436"
       opacity="0.2"
       id="circle50" />
    <circle
       r="1.5"
       cx="367"
       cy="421"
       opacity="0.2"
       id="circle51" />
    <circle
       r="1.5"
       cx="361"
       cy="395"
       opacity="0.2"
       id="circle52" />
    <circle
       r="1.5"
       cx="372"
       cy="371"
       opacity="0.2"
       id="circle53" />
    <circle
       r="1.5"
       cx="396"
       cy="359"
       opacity="0.2"
       id="circle54" />
    <circle
       r="1.5"
       cx="423"
       cy="365"
       opacity="0.21"
       id="circle55" />
    <circle
       r="1.5"
       cx="441"
       cy="388"
       opacity="0.21"
       id="circle56" />
    <circle
       r="1.5"
       cx="440"
       cy="416"
       opacity="0.21"
       id="circle57" />
    <circle
       r="1.5"
       cx="421"
       cy="438"
       opacity="0.21"
       id="circle58" />
    <circle
       r="1.5"
       cx="392"
       cy="444"
       opacity="0.21"
       id="circle59" />
    <circle
       r="1.5"
       cx="366"
       cy="430"
       opacity="0.22"
       id="circle60" />
    <circle
       r="2"
       cx="354"
       cy="402"
       opacity="0.22"
       id="circle61" />
    <circle
       r="2"
       cx="363"
       cy="372"
       opacity="0.22"
       id="circle62" />
    <circle
       r="2"
       cx="388"
       cy="354"
       opacity="0.22"
       id="circle63" />
    <circle
       r="2"
       cx="420"
       cy="356"
       opacity="0.22"
       id="circle64" />
    <circle
       r="2"
       cx="443"
       cy="378"
       opacity="0.23"
       id="circle65" />
    <circle
       r="2"
       cx="448"
       cy="411"
       opacity="0.23"
       id="circle66" />
    <circle
       r="2"
       cx="431"
       cy="439"
       opacity="0.23"
       id="circle67" />
    <circle
       r="2"
       cx="400"
       cy="451"
       opacity="0.23"
       id="circle68" />
    <circle
       r="2"
       cx="368"
       cy="440"
       opacity="0.23"
       id="circle69" />
    <circle
       r="2"
       cx="349"
       cy="411"
       opacity="0.24"
       id="circle70" />
    <circle
       r="2"
       cx="353"
       cy="376"
       opacity="0.24"
       id="circle71" />
    <circle
       r="2"
       cx="379"
       cy="351"
       opacity="0.24"
       id="circle72" />
    <circle
       r="2"
       cx="414"
       cy="348"
       opacity="0.24"
       id="circle73" />
    <circle
       r="2"
       cx="444"
       cy="368"
       opacity="0.24"
       id="circle74" />
    <circle
       r="2"
       cx="455"
       cy="403"
       opacity="0.25"
       id="circle75" />
    <circle
       r="2"
       cx="442"
       cy="438"
       opacity="0.25"
       id="circle76" />
    <circle
       r="2"
       cx="409"
       cy="456"
       opacity="0.25"
       id="circle77" />
    <circle
       r="2"
       cx="371"
       cy="450"
       opacity="0.25"
       id="circle78" />
    <circle
       r="2"
       cx="346"
       cy="421"
       opacity="0.25"
       id="circle79" />
    <circle
       r="2"
       cx="344"
       cy="382"
       opacity="0.26"
       id="circle80" />
    <circle
       r="2"
       cx="368"
       cy="350"
       opacity="0.26"
       id="circle81" />
    <circle
       r="2"
       cx="406"
       cy="340"
       opacity="0.26"
       id="circle82" />
    <circle
       r="2"
       cx="443"
       cy="357"
       opacity="0.26"
       id="circle83" />
    <circle
       r="2"
       cx="461"
       cy="393"
       opacity="0.26"
       id="circle84" />
    <circle
       r="2"
       cx="452"
       cy="434"
       opacity="0.27"
       id="circle85" />
    <circle
       r="2"
       cx="420"
       cy="460"
       opacity="0.27"
       id="circle86" />
    <circle
       r="2"
       cx="378"
       cy="459"
       opacity="0.27"
       id="circle87" />
    <circle
       r="2"
       cx="345"
       cy="432"
       opacity="0.27"
       id="circle88" />
    <circle
       r="2"
       cx="336"
       cy="390"
       opacity="0.27"
       id="circle89" />
    <circle
       r="2"
       cx="356"
       cy="352"
       opacity="0.28"
       id="circle90" />
    <circle
       r="2"
       cx="396"
       cy="334"
       opacity="0.28"
       id="circle91" />
    <circle
       r="2"
       cx="439"
       cy="346"
       opacity="0.28"
       id="circle92" />
    <circle
       r="2"
       cx="465"
       cy="382"
       opacity="0.28"
       id="circle93" />
    <circle
       r="2"
       cx="463"
       cy="427"
       opacity="0.28"
       id="circle94" />
    <circle
       r="2"
       cx="432"
       cy="461"
       opacity="0.29"
       id="circle95" />
    <circle
       r="2"
       cx="386"
       cy="468"
       opacity="0.29"
       id="circle96" />
    <circle
       r="2"
       cx="346"
       cy="445"
       opacity="0.29"
       id="circle97" />
    <circle
       r="2"
       cx="329"
       cy="401"
       opacity="0.29"
       id="circle98" />
    <circle
       r="2"
       cx="344"
       cy="356"
       opacity="0.29"
       id="circle99" />
    <circle
       r="2"
       cx="384"
       cy="329"
       opacity="0.3"
       id="circle100" />
    <circle
       r="2.5"
       cx="432"
       cy="334"
       opacity="0.3"
       id="circle101" />
    <circle
       r="2.5"
       cx="467"
       cy="369"
       opacity="0.3"
       id="circle102" />
    <circle
       r="2.5"
       cx="472"
       cy="418"
       opacity="0.3"
       id="circle103" />
    <circle
       r="2.5"
       cx="445"
       cy="460"
       opacity="0.3"
       id="circle104" />
    <circle
       r="2.5"
       cx="397"
       cy="476"
       opacity="0.31"
       id="circle105" />
    <circle
       r="2.5"
       cx="350"
       cy="458"
       opacity="0.31"
       id="circle106" />
    <circle
       r="2.5"
       cx="324"
       cy="414"
       opacity="0.31"
       id="circle107" />
    <circle
       r="2.5"
       cx="332"
       cy="362"
       opacity="0.31"
       id="circle108" />
    <circle
       r="2.5"
       cx="370"
       cy="327"
       opacity="0.31"
       id="circle109" />
    <circle
       r="2.5"
       cx="423"
       cy="324"
       opacity="0.32"
       id="circle110" />
    <circle
       r="2.5"
       cx="466"
       cy="355"
       opacity="0.32"
       id="circle111" />
    <circle
       r="2.5"
       cx="480"
       cy="407"
       opacity="0.32"
       id="circle112" />
    <circle
       r="2.5"
       cx="459"
       cy="456"
       opacity="0.32"
       id="circle113" />
    <circle
       r="2.5"
       cx="411"
       cy="481"
       opacity="0.32"
       id="circle114" />
    <circle
       r="2.5"
       cx="357"
       cy="470"
       opacity="0.33"
       id="circle115" />
    <circle
       r="2.5"
       cx="322"
       cy="428"
       opacity="0.33"
       id="circle116" />
    <circle
       r="2.5"
       cx="321"
       cy="372"
       opacity="0.33"
       id="circle117" />
    <circle
       r="2.5"
       cx="356"
       cy="328"
       opacity="0.33"
       id="circle118" />
    <circle
       r="2.5"
       cx="411"
       cy="315"
       opacity="0.33"
       id="circle119" />
    <circle
       r="2.5"
       cx="462"
       cy="341"
       opacity="0.34"
       id="circle120" />
    <circle
       r="2.5"
       cx="486"
       cy="393"
       opacity="0.34"
       id="circle121" />
    <circle
       r="2.5"
       cx="472"
       cy="449"
       opacity="0.34"
       id="circle122" />
    <circle
       r="2.5"
       cx="425"
       cy="484"
       opacity="0.34"
       id="circle123" />
    <circle
       r="2.5"
       cx="366"
       cy="482"
       opacity="0.34"
       id="circle124" />
    <circle
       r="2.5"
       cx="322"
       cy="443"
       opacity="0.35"
       id="circle125" />
    <circle
       r="2.5"
       cx="311"
       cy="384"
       opacity="0.35"
       id="circle126" />
    <circle
       r="2.5"
       cx="341"
       cy="331"
       opacity="0.35"
       id="circle127" />
    <circle
       r="2.5"
       cx="397"
       cy="309"
       opacity="0.35"
       id="circle128" />
    <circle
       r="2.5"
       cx="455"
       cy="327"
       opacity="0.35"
       id="circle129" />
    <circle
       r="2.5"
       cx="490"
       cy="378"
       opacity="0.35"
       id="circle130" />
    <circle
       r="2.5"
       cx="485"
       cy="439"
       opacity="0.36"
       id="circle131" />
    <circle
       r="2.5"
       cx="441"
       cy="484"
       opacity="0.36"
       id="circle132" />
    <circle
       r="2.5"
       cx="379"
       cy="492"
       opacity="0.36"
       id="circle133" />
    <circle
       r="2.5"
       cx="325"
       cy="459"
       opacity="0.36"
       id="circle134" />
    <circle
       r="2.5"
       cx="304"
       cy="399"
       opacity="0.36"
       id="circle135" />
    <circle
       r="2.5"
       cx="326"
       cy="338"
       opacity="0.37"
       id="circle136" />
    <circle
       r="2.5"
       cx="381"
       cy="304"
       opacity="0.37"
       id="circle137" />
    <circle
       r="2.5"
       cx="446"
       cy="313"
       opacity="0.37"
       id="circle138" />
    <circle
       r="2.5"
       cx="491"
       cy="361"
       opacity="0.37"
       id="circle139" />
    <circle
       r="3"
       cx="496"
       cy="427"
       opacity="0.37"
       id="circle140" />
    <circle
       r="3"
       cx="458"
       cy="482"
       opacity="0.38"
       id="circle141" />
    <circle
       r="3"
       cx="394"
       cy="501"
       opacity="0.38"
       id="circle142" />
    <circle
       r="3"
       cx="331"
       cy="475"
       opacity="0.38"
       id="circle143" />
    <circle
       r="3"
       cx="299"
       cy="415"
       opacity="0.38"
       id="circle144" />
    <circle
       r="3"
       cx="311"
       cy="348"
       opacity="0.38"
       id="circle145" />
    <circle
       r="3"
       cx="363"
       cy="303"
       opacity="0.39"
       id="circle146" />
    <circle
       r="3"
       cx="433"
       cy="301"
       opacity="0.39"
       id="circle147" />
    <circle
       r="3"
       cx="488"
       cy="343"
       opacity="0.39"
       id="circle148" />
    <circle
       r="3"
       cx="505"
       cy="411"
       opacity="0.39"
       id="circle149" />
    <circle
       r="3"
       cx="475"
       cy="475"
       opacity="0.39"
       id="circle150" />
    <circle
       r="3"
       cx="411"
       cy="506"
       opacity="0.4"
       id="circle151" />
    <circle
       r="3"
       cx="341"
       cy="490"
       opacity="0.4"
       id="circle152" />
    <circle
       r="3"
       cx="297"
       cy="433"
       opacity="0.4"
       id="circle153" />
    <circle
       r="3"
       cx="298"
       cy="361"
       opacity="0.4"
       id="circle154" />
    <circle
       r="3"
       cx="345"
       cy="305"
       opacity="0.4"
       id="circle155" />
    <circle
       r="3"
       cx="417"
       cy="291"
       opacity="0.41"
       id="circle156" />
    <circle
       r="3"
       cx="482"
       cy="326"
       opacity="0.41"
       id="circle157" />
    <circle
       r="3"
       cx="512"
       cy="394"
       opacity="0.41"
       id="circle158" />
    <circle
       r="3"
       cx="491"
       cy="466"
       opacity="0.41"
       id="circle159" />
    <circle
       r="3"
       cx="430"
       cy="509"
       opacity="0.41"
       id="circle160" />
    <circle
       r="3"
       cx="354"
       cy="504"
       opacity="0.42"
       id="circle161" />
    <circle
       r="3"
       cx="298"
       cy="452"
       opacity="0.42"
       id="circle162" />
    <circle
       r="3"
       cx="287"
       cy="377"
       opacity="0.42"
       id="circle163" />
    <circle
       r="3"
       cx="327"
       cy="310"
       opacity="0.42"
       id="circle164" />
    <circle
       r="3"
       cx="399"
       cy="283"
       opacity="0.42"
       id="circle165" />
    <circle
       r="3"
       cx="473"
       cy="308"
       opacity="0.43"
       id="circle166" />
    <circle
       r="3"
       cx="515"
       cy="375"
       opacity="0.43"
       id="circle167" />
    <circle
       r="3"
       cx="506"
       cy="453"
       opacity="0.43"
       id="circle168" />
    <circle
       r="3"
       cx="450"
       cy="508"
       opacity="0.43"
       id="circle169" />
    <circle
       r="3"
       cx="370"
       cy="516"
       opacity="0.43"
       id="circle170" />
    <circle
       r="3"
       cx="303"
       cy="472"
       opacity="0.44"
       id="circle171" />
    <circle
       r="3"
       cx="279"
       cy="395"
       opacity="0.44"
       id="circle172" />
    <circle
       r="3"
       cx="308"
       cy="319"
       opacity="0.44"
       id="circle173" />
    <circle
       r="3"
       cx="379"
       cy="279"
       opacity="0.44"
       id="circle174" />
    <circle
       r="3"
       cx="460"
       cy="292"
       opacity="0.44"
       id="circle175" />
    <circle
       r="3"
       cx="515"
       cy="354"
       opacity="0.45"
       id="circle176" />
    <circle
       r="3"
       cx="519"
       cy="437"
       opacity="0.45"
       id="circle177" />
    <circle
       r="3"
       cx="470"
       cy="504"
       opacity="0.45"
       id="circle178" />
    <circle
       r="3"
       cx="389"
       cy="526"
       opacity="0.45"
       id="circle179" />
    <circle
       r="3.5"
       cx="312"
       cy="491"
       opacity="0.45"
       id="circle180" />
    <circle
       r="3.5"
       cx="274"
       cy="416"
       opacity="0.46"
       id="circle181" />
    <circle
       r="3.5"
       cx="291"
       cy="332"
       opacity="0.46"
       id="circle182" />
    <circle
       r="3.5"
       cx="358"
       cy="278"
       opacity="0.46"
       id="circle183" />
    <circle
       r="3.5"
       cx="444"
       cy="278"
       opacity="0.46"
       id="circle184" />
    <circle
       r="3.5"
       cx="511"
       cy="333"
       opacity="0.46"
       id="circle185" />
    <circle
       r="3.5"
       cx="530"
       cy="418"
       opacity="0.47"
       id="circle186" />
    <circle
       r="3.5"
       cx="490"
       cy="496"
       opacity="0.47"
       id="circle187" />
    <circle
       r="3.5"
       cx="410"
       cy="532"
       opacity="0.47"
       id="circle188" />
    <circle
       r="3.5"
       cx="324"
       cy="509"
       opacity="0.47"
       id="circle189" />
    <circle
       r="3.5"
       cx="272"
       cy="438"
       opacity="0.47"
       id="circle190" />
    <circle
       r="3.5"
       cx="276"
       cy="348"
       opacity="0.48"
       id="circle191" />
    <circle
       r="3.5"
       cx="336"
       cy="281"
       opacity="0.48"
       id="circle192" />
    <circle
       r="3.5"
       cx="425"
       cy="267"
       opacity="0.48"
       id="circle193" />
    <circle
       r="3.5"
       cx="504"
       cy="312"
       opacity="0.48"
       id="circle194" />
    <circle
       r="3.5"
       cx="537"
       cy="396"
       opacity="0.48"
       id="circle195" />
    <circle
       r="3.5"
       cx="509"
       cy="484"
       opacity="0.49"
       id="circle196" />
    <circle
       r="3.5"
       cx="433"
       cy="534"
       opacity="0.49"
       id="circle197" />
    <circle
       r="3.5"
       cx="341"
       cy="526"
       opacity="0.49"
       id="circle198" />
    <circle
       r="3.5"
       cx="274"
       cy="461"
       opacity="0.49"
       id="circle199" />
    <circle
       r="3.5"
       cx="263"
       cy="368"
       opacity="0.49"
       id="circle200" />
    <circle
       r="3.5"
       cx="314"
       cy="289"
       opacity="0.5"
       id="circle201" />
    <circle
       r="3.5"
       cx="403"
       cy="258"
       opacity="0.5"
       id="circle202" />
    <circle
       r="3.5"
       cx="492"
       cy="291"
       opacity="0.5"
       id="circle203" />
    <circle
       r="3.5"
       cx="540"
       cy="373"
       opacity="0.5"
       id="circle204" />
    <circle
       r="3.5"
       cx="527"
       cy="468"
       opacity="0.5"
       id="circle205" />
    <circle
       r="3.5"
       cx="456"
       cy="533"
       opacity="0.51"
       id="circle206" />
    <circle
       r="3.5"
       cx="360"
       cy="539"
       opacity="0.51"
       id="circle207" />
    <circle
       r="3.5"
       cx="281"
       cy="484"
       opacity="0.51"
       id="circle208" />
    <circle
       r="3.5"
       cx="254"
       cy="390"
       opacity="0.51"
       id="circle209" />
    <circle
       r="3.5"
       cx="292"
       cy="300"
       opacity="0.51"
       id="circle210" />
    <circle
       r="3.5"
       cx="379"
       cy="254"
       opacity="0.51"
       id="circle211" />
    <circle
       r="3.5"
       cx="476"
       cy="272"
       opacity="0.52"
       id="circle212" />
    <circle
       r="3.5"
       cx="540"
       cy="348"
       opacity="0.52"
       id="circle213" />
    <circle
       r="3.5"
       cx="542"
       cy="448"
       opacity="0.52"
       id="circle214" />
    <circle
       r="3.5"
       cx="480"
       cy="527"
       opacity="0.52"
       id="circle215" />
    <circle
       r="3.5"
       cx="383"
       cy="550"
       opacity="0.52"
       id="circle216" />
    <circle
       r="3.5"
       cx="291"
       cy="506"
       opacity="0.53"
       id="circle217" />
    <circle
       r="3.5"
       cx="248"
       cy="414"
       opacity="0.53"
       id="circle218" />
    <circle
       r="4"
       cx="272"
       cy="315"
       opacity="0.53"
       id="circle219" />
    <circle
       r="4"
       cx="354"
       cy="253"
       opacity="0.53"
       id="circle220" />
    <circle
       r="4"
       cx="457"
       cy="256"
       opacity="0.53"
       id="circle221" />
    <circle
       r="4"
       cx="535"
       cy="323"
       opacity="0.54"
       id="circle222" />
    <circle
       r="4"
       cx="554"
       cy="425"
       opacity="0.54"
       id="circle223" />
    <circle
       r="4"
       cx="504"
       cy="517"
       opacity="0.54"
       id="circle224" />
    <circle
       r="4"
       cx="407"
       cy="557"
       opacity="0.54"
       id="circle225" />
    <circle
       r="4"
       cx="307"
       cy="527"
       opacity="0.54"
       id="circle226" />
    <circle
       r="4"
       cx="247"
       cy="440"
       opacity="0.55"
       id="circle227" />
    <circle
       r="4"
       cx="255"
       cy="335"
       opacity="0.55"
       id="circle228" />
    <circle
       r="4"
       cx="328"
       cy="257"
       opacity="0.55"
       id="circle229" />
    <circle
       r="4"
       cx="434"
       cy="243"
       opacity="0.55"
       id="circle230" />
    <circle
       r="4"
       cx="526"
       cy="299"
       opacity="0.55"
       id="circle231" />
    <circle
       r="4"
       cx="562"
       cy="400"
       opacity="0.56"
       id="circle232" />
    <circle
       r="4"
       cx="527"
       cy="502"
       opacity="0.56"
       id="circle233" />
    <circle
       r="4"
       cx="434"
       cy="560"
       opacity="0.56"
       id="circle234" />
    <circle
       r="4"
       cx="326"
       cy="546"
       opacity="0.56"
       id="circle235" />
    <circle
       r="4"
       cx="250"
       cy="467"
       opacity="0.56"
       id="circle236" />
    <circle
       r="4"
       cx="240"
       cy="358"
       opacity="0.57"
       id="circle237" />
    <circle
       r="4"
       cx="302"
       cy="266"
       opacity="0.57"
       id="circle238" />
    <circle
       r="4"
       cx="408"
       cy="233"
       opacity="0.57"
       id="circle239" />
    <circle
       r="4"
       cx="511"
       cy="275"
       opacity="0.57"
       id="circle240" />
    <circle
       r="4"
       cx="566"
       cy="373"
       opacity="0.57"
       id="circle241" />
    <circle
       r="4"
       cx="547"
       cy="483"
       opacity="0.58"
       id="circle242" />
    <circle
       r="4"
       cx="462"
       cy="558"
       opacity="0.58"
       id="circle243" />
    <circle
       r="4"
       cx="349"
       cy="562"
       opacity="0.58"
       id="circle244" />
    <circle
       r="4"
       cx="257"
       cy="494"
       opacity="0.58"
       id="circle245" />
    <circle
       r="4"
       cx="229"
       cy="384"
       opacity="0.58"
       id="circle246" />
    <circle
       r="4"
       cx="277"
       cy="279"
       opacity="0.59"
       id="circle247" />
    <circle
       r="4"
       cx="380"
       cy="228"
       opacity="0.59"
       id="circle248" />
    <circle
       r="4"
       cx="493"
       cy="253"
       opacity="0.59"
       id="circle249" />
    <circle
       r="4"
       cx="565"
       cy="344"
       opacity="0.59"
       id="circle250" />
    <circle
       r="4"
       cx="564"
       cy="461"
       opacity="0.59"
       id="circle251" />
    <circle
       r="4"
       cx="490"
       cy="551"
       opacity="0.6"
       id="circle252" />
    <circle
       r="4"
       cx="375"
       cy="575"
       opacity="0.6"
       id="circle253" />
    <circle
       r="4"
       cx="270"
       cy="520"
       opacity="0.6"
       id="circle254" />
    <circle
       r="4"
       cx="223"
       cy="412"
       opacity="0.6"
       id="circle255" />
    <circle
       r="4"
       cx="254"
       cy="297"
       opacity="0.6"
       id="circle256" />
    <circle
       r="4"
       cx="351"
       cy="228"
       opacity="0.61"
       id="circle257" />
    <circle
       r="4"
       cx="470"
       cy="235"
       opacity="0.61"
       id="circle258" />
    <circle
       r="4.5"
       cx="559"
       cy="315"
       opacity="0.61"
       id="circle259" />
    <circle
       r="4.5"
       cx="578"
       cy="434"
       opacity="0.61"
       id="circle260" />
    <circle
       r="4.5"
       cx="517"
       cy="539"
       opacity="0.61"
       id="circle261" />
    <circle
       r="4.5"
       cx="404"
       cy="582"
       opacity="0.62"
       id="circle262" />
    <circle
       r="4.5"
       cx="288"
       cy="545"
       opacity="0.62"
       id="circle263" />
    <circle
       r="4.5"
       cx="221"
       cy="442"
       opacity="0.62"
       id="circle264" />
    <circle
       r="4.5"
       cx="234"
       cy="320"
       opacity="0.62"
       id="circle265" />
    <circle
       r="4.5"
       cx="321"
       cy="233"
       opacity="0.62"
       id="circle266" />
    <circle
       r="4.5"
       cx="444"
       cy="219"
       opacity="0.63"
       id="circle267" />
    <circle
       r="4.5"
       cx="548"
       cy="287"
       opacity="0.63"
       id="circle268" />
    <circle
       r="4.5"
       cx="587"
       cy="405"
       opacity="0.63"
       id="circle269" />
    <circle
       r="4.5"
       cx="543"
       cy="522"
       opacity="0.63"
       id="circle270" />
    <circle
       r="4.5"
       cx="434"
       cy="585"
       opacity="0.63"
       id="circle271" />
    <circle
       r="4.5"
       cx="310"
       cy="566"
       opacity="0.64"
       id="circle272" />
    <circle
       r="4.5"
       cx="225"
       cy="473"
       opacity="0.64"
       id="circle273" />
    <circle
       r="4.5"
       cx="217"
       cy="346"
       opacity="0.64"
       id="circle274" />
    <circle
       r="4.5"
       cx="291"
       cy="243"
       opacity="0.64"
       id="circle275" />
    <circle
       r="4.5"
       cx="414"
       cy="209"
       opacity="0.64"
       id="circle276" />
    <circle
       r="4.5"
       cx="532"
       cy="260"
       opacity="0.65"
       id="circle277" />
    <circle
       r="4.5"
       cx="592"
       cy="374"
       opacity="0.65"
       id="circle278" />
    <circle
       r="4.5"
       cx="566"
       cy="501"
       opacity="0.65"
       id="circle279" />
    <circle
       r="4.5"
       cx="466"
       cy="583"
       opacity="0.65"
       id="circle280" />
    <circle
       r="4.5"
       cx="336"
       cy="585"
       opacity="0.65"
       id="circle281" />
    <circle
       r="4.5"
       cx="234"
       cy="504"
       opacity="0.66"
       id="circle282" />
    <circle
       r="4.5"
       cx="205"
       cy="376"
       opacity="0.66"
       id="circle283" />
    <circle
       r="4.5"
       cx="263"
       cy="258"
       opacity="0.66"
       id="circle284" />
    <circle
       r="4.5"
       cx="383"
       cy="203"
       opacity="0.66"
       id="circle285" />
    <circle
       r="4.5"
       cx="511"
       cy="235"
       opacity="0.66"
       id="circle286" />
    <circle
       r="4.5"
       cx="591"
       cy="341"
       opacity="0.67"
       id="circle287" />
    <circle
       r="4.5"
       cx="586"
       cy="474"
       opacity="0.67"
       id="circle288" />
    <circle
       r="4.5"
       cx="498"
       cy="575"
       opacity="0.67"
       id="circle289" />
    <circle
       r="4.5"
       cx="366"
       cy="599"
       opacity="0.67"
       id="circle290" />
    <circle
       r="4.5"
       cx="248"
       cy="533"
       opacity="0.67"
       id="circle291" />
    <circle
       r="4.5"
       cx="197"
       cy="408"
       opacity="0.67"
       id="circle292" />
    <circle
       r="4.5"
       cx="237"
       cy="278"
       opacity="0.68"
       id="circle293" />
    <circle
       r="4.5"
       cx="349"
       cy="202"
       opacity="0.68"
       id="circle294" />
    <circle
       r="4.5"
       cx="485"
       cy="214"
       opacity="0.68"
       id="circle295" />
    <circle
       r="4.5"
       cx="584"
       cy="308"
       opacity="0.68"
       id="circle296" />
    <circle
       r="4.5"
       cx="601"
       cy="445"
       opacity="0.68"
       id="circle297" />
    <circle
       r="4.5"
       cx="529"
       cy="562"
       opacity="0.69"
       id="circle298" />
    <circle
       r="5"
       cx="398"
       cy="608"
       opacity="0.69"
       id="circle299" />
    <circle
       r="5"
       cx="268"
       cy="561"
       opacity="0.69"
       id="circle300" />
    <circle
       r="5"
       cx="195"
       cy="442"
       opacity="0.69"
       id="circle301" />
    <circle
       r="5"
       cx="214"
       cy="304"
       opacity="0.69"
       id="circle302" />
    <circle
       r="5"
       cx="315"
       cy="207"
       opacity="0.7"
       id="circle303" />
    <circle
       r="5"
       cx="455"
       cy="196"
       opacity="0.7"
       id="circle304" />
    <circle
       r="5"
       cx="572"
       cy="276"
       opacity="0.7"
       id="circle305" />
    <circle
       r="5"
       cx="612"
       cy="412"
       opacity="0.7"
       id="circle306" />
    <circle
       r="5"
       cx="558"
       cy="543"
       opacity="0.7"
       id="circle307" />
    <circle
       r="5"
       cx="433"
       cy="611"
       opacity="0.71"
       id="circle308" />
    <circle
       r="5"
       cx="293"
       cy="586"
       opacity="0.71"
       id="circle309" />
    <circle
       r="5"
       cx="199"
       cy="477"
       opacity="0.71"
       id="circle310" />
    <circle
       r="5"
       cx="195"
       cy="333"
       opacity="0.71"
       id="circle311" />
    <circle
       r="5"
       cx="282"
       cy="219"
       opacity="0.71"
       id="circle312" />
    <circle
       r="5"
       cx="422"
       cy="184"
       opacity="0.72"
       id="circle313" />
    <circle
       r="5"
       cx="554"
       cy="246"
       opacity="0.72"
       id="circle314" />
    <circle
       r="5"
       cx="617"
       cy="376"
       opacity="0.72"
       id="circle315" />
    <circle
       r="5"
       cx="584"
       cy="519"
       opacity="0.72"
       id="circle316" />
    <circle
       r="5"
       cx="469"
       cy="609"
       opacity="0.72"
       id="circle317" />
    <circle
       r="5"
       cx="322"
       cy="606"
       opacity="0.73"
       id="circle318" />
    <circle
       r="5"
       cx="209"
       cy="512"
       opacity="0.73"
       id="circle319" />
    <circle
       r="5"
       cx="181"
       cy="367"
       opacity="0.73"
       id="circle320" />
    <circle
       r="5"
       cx="250"
       cy="236"
       opacity="0.73"
       id="circle321" />
    <circle
       r="5"
       cx="386"
       cy="177"
       opacity="0.73"
       id="circle322" />
    <circle
       r="5"
       cx="530"
       cy="218"
       opacity="0.74"
       id="circle323" />
    <circle
       r="5"
       cx="616"
       cy="340"
       opacity="0.74"
       id="circle324" />
    <circle
       r="5"
       cx="607"
       cy="490"
       opacity="0.74"
       id="circle325" />
    <circle
       r="5"
       cx="505"
       cy="600"
       opacity="0.74"
       id="circle326" />
    <circle
       r="5"
       cx="355"
       cy="622"
       opacity="0.74"
       id="circle327" />
    <circle
       r="5"
       cx="225"
       cy="545"
       opacity="0.75"
       id="circle328" />
    <circle
       r="5"
       cx="172"
       cy="403"
       opacity="0.75"
       id="circle329" />
    <circle
       r="5"
       cx="220"
       cy="259"
       opacity="0.75"
       id="circle330" />
    <circle
       r="5"
       cx="349"
       cy="176"
       opacity="0.75"
       id="circle331" />
    <circle
       r="5"
       cx="501"
       cy="193"
       opacity="0.75"
       id="circle332" />
    <circle
       r="5"
       cx="609"
       cy="303"
       opacity="0.76"
       id="circle333" />
    <circle
       r="5"
       cx="625"
       cy="456"
       opacity="0.76"
       id="circle334" />
    <circle
       r="5"
       cx="540"
       cy="585"
       opacity="0.76"
       id="circle335" />
    <circle
       r="5"
       cx="392"
       cy="633"
       opacity="0.76"
       id="circle336" />
    <circle
       r="5"
       cx="247"
       cy="576"
       opacity="0.76"
       id="circle337" />
    <circle
       r="5.5"
       cx="169"
       cy="441"
       opacity="0.77"
       id="circle338" />
    <circle
       r="5.5"
       cx="194"
       cy="287"
       opacity="0.77"
       id="circle339" />
    <circle
       r="5.5"
       cx="311"
       cy="182"
       opacity="0.77"
       id="circle340" />
    <circle
       r="5.5"
       cx="468"
       cy="174"
       opacity="0.77"
       id="circle341" />
    <circle
       r="5.5"
       cx="596"
       cy="267"
       opacity="0.77"
       id="circle342" />
    <circle
       r="5.5"
       cx="637"
       cy="419"
       opacity="0.78"
       id="circle343" />
    <circle
       r="5.5"
       cx="572"
       cy="564"
       opacity="0.78"
       id="circle344" />
    <circle
       r="5.5"
       cx="431"
       cy="637"
       opacity="0.78"
       id="circle345" />
    <circle
       r="5.5"
       cx="274"
       cy="604"
       opacity="0.78"
       id="circle346" />
    <circle
       r="5.5"
       cx="173"
       cy="480"
       opacity="0.78"
       id="circle347" />
    <circle
       r="5.5"
       cx="173"
       cy="320"
       opacity="0.79"
       id="circle348" />
    <circle
       r="5.5"
       cx="274"
       cy="194"
       opacity="0.79"
       id="circle349" />
    <circle
       r="5.5"
       cx="431"
       cy="160"
       opacity="0.79"
       id="circle350" />
    <circle
       r="5.5"
       cx="576"
       cy="232"
       opacity="0.79"
       id="circle351" />
    <circle
       r="5.5"
       cx="643"
       cy="380"
       opacity="0.79"
       id="circle352" />
    <circle
       r="5.5"
       cx="602"
       cy="538"
       opacity="0.8"
       id="circle353" />
    <circle
       r="5.5"
       cx="471"
       cy="635"
       opacity="0.8"
       id="circle354" />
    <circle
       r="5.5"
       cx="307"
       cy="627"
       opacity="0.8"
       id="circle355" />
    <circle
       r="5.5"
       cx="184"
       cy="519"
       opacity="0.8"
       id="circle356" />
    <circle
       r="5.5"
       cx="157"
       cy="356"
       opacity="0.8"
       id="circle357" />
    <circle
       r="5.5"
       cx="238"
       cy="213"
       opacity="0.81"
       id="circle358" />
    <circle
       r="5.5"
       cx="392"
       cy="152"
       opacity="0.81"
       id="circle359" />
    <circle
       r="5.5"
       cx="550"
       cy="201"
       opacity="0.81"
       id="circle360" />
    <circle
       r="5.5"
       cx="642"
       cy="340"
       opacity="0.81"
       id="circle361" />
    <circle
       r="5.5"
       cx="627"
       cy="506"
       opacity="0.81"
       id="circle362" />
    <circle
       r="5.5"
       cx="510"
       cy="626"
       opacity="0.82"
       id="circle363" />
    <circle
       r="5.5"
       cx="344"
       cy="645"
       opacity="0.82"
       id="circle364" />
    <circle
       r="5.5"
       cx="201"
       cy="556"
       opacity="0.82"
       id="circle365" />
    <circle
       r="5.5"
       cx="147"
       cy="396"
       opacity="0.82"
       id="circle366" />
    <circle
       r="5.5"
       cx="205"
       cy="238"
       opacity="0.82"
       id="circle367" />
    <circle
       r="5.5"
       cx="350"
       cy="150"
       opacity="0.83"
       id="circle368" />
    <circle
       r="5.5"
       cx="519"
       cy="174"
       opacity="0.83"
       id="circle369" />
    <circle
       r="5.5"
       cx="635"
       cy="299"
       opacity="0.83"
       id="circle370" />
    <circle
       r="5.5"
       cx="647"
       cy="469"
       opacity="0.83"
       id="circle371" />
    <circle
       r="5.5"
       cx="549"
       cy="610"
       opacity="0.83"
       id="circle372" />
    <circle
       r="5.5"
       cx="384"
       cy="657"
       opacity="0.84"
       id="circle373" />
    <circle
       r="5.5"
       cx="225"
       cy="591"
       opacity="0.84"
       id="circle374" />
    <circle
       r="5.5"
       cx="144"
       cy="438"
       opacity="0.84"
       id="circle375" />
    <circle
       r="5.5"
       cx="176"
       cy="268"
       opacity="0.84"
       id="circle376" />
    <circle
       r="5.5"
       cx="308"
       cy="156"
       opacity="0.84"
       id="circle377" />
    <circle
       r="6"
       cx="482"
       cy="152"
       opacity="0.84"
       id="circle378" />
    <circle
       r="6"
       cx="621"
       cy="258"
       opacity="0.85"
       id="circle379" />
    <circle
       r="6"
       cx="661"
       cy="429"
       opacity="0.85"
       id="circle380" />
    <circle
       r="6"
       cx="586"
       cy="587"
       opacity="0.85"
       id="circle381" />
    <circle
       r="6"
       cx="427"
       cy="663"
       opacity="0.85"
       id="circle382" />
    <circle
       r="6"
       cx="255"
       cy="622"
       opacity="0.85"
       id="circle383" />
    <circle
       r="6"
       cx="147"
       cy="482"
       opacity="0.86"
       id="circle384" />
    <circle
       r="6"
       cx="152"
       cy="304"
       opacity="0.86"
       id="circle385" />
    <circle
       r="6"
       cx="267"
       cy="169"
       opacity="0.86"
       id="circle386" />
    <circle
       r="6"
       cx="442"
       cy="136"
       opacity="0.86"
       id="circle387" />
    <circle
       r="6"
       cx="599"
       cy="220"
       opacity="0.86"
       id="circle388" />
    <circle
       r="6"
       cx="668"
       cy="386"
       opacity="0.87"
       id="circle389" />
    <circle
       r="6"
       cx="618"
       cy="558"
       opacity="0.87"
       id="circle390" />
    <circle
       r="6"
       cx="471"
       cy="661"
       opacity="0.87"
       id="circle391" />
    <circle
       r="6"
       cx="291"
       cy="648"
       opacity="0.87"
       id="circle392" />
    <circle
       r="6"
       cx="159"
       cy="524"
       opacity="0.87"
       id="circle393" />
    <circle
       r="6"
       cx="133"
       cy="345"
       opacity="0.88"
       id="circle394" />
    <circle
       r="6"
       cx="227"
       cy="189"
       opacity="0.88"
       id="circle395" />
    <circle
       r="6"
       cx="398"
       cy="126"
       opacity="0.88"
       id="circle396" />
    <circle
       r="6"
       cx="571"
       cy="186"
       opacity="0.88"
       id="circle397" />
    <circle
       r="6"
       cx="669"
       cy="341"
       opacity="0.88"
       id="circle398" />
    <circle
       r="6"
       cx="647"
       cy="523"
       opacity="0.89"
       id="circle399" />
    <circle
       r="6"
       cx="515"
       cy="651"
       opacity="0.89"
       id="circle400" />
    <circle
       r="6"
       cx="331"
       cy="668"
       opacity="0.89"
       id="circle401" />
    <circle
       r="6"
       cx="177"
       cy="566"
       opacity="0.89"
       id="circle402" />
    <circle
       r="6"
       cx="122"
       cy="388"
       opacity="0.89"
       id="circle403" />
    <circle
       r="6"
       cx="190"
       cy="216"
       opacity="0.9"
       id="circle404" />
    <circle
       r="6"
       cx="353"
       cy="124"
       opacity="0.9"
       id="circle405" />
    <circle
       r="6"
       cx="537"
       cy="155"
       opacity="0.9"
       id="circle406" />
    <circle
       r="6"
       cx="661"
       cy="296"
       opacity="0.9"
       id="circle407" />
    <circle
       r="6"
       cx="669"
       cy="483"
       opacity="0.9"
       id="circle408" />
    <circle
       r="6"
       cx="557"
       cy="635"
       opacity="0.91"
       id="circle409" />
    <circle
       r="6"
       cx="375"
       cy="682"
       opacity="0.91"
       id="circle410" />
    <circle
       r="6"
       cx="203"
       cy="604"
       opacity="0.91"
       id="circle411" />
    <circle
       r="6"
       cx="118"
       cy="435"
       opacity="0.91"
       id="circle412" />
    <circle
       r="6"
       cx="158"
       cy="249"
       opacity="0.91"
       id="circle413" />
    <circle
       r="6"
       cx="307"
       cy="130"
       opacity="0.92"
       id="circle414" />
    <circle
       r="6"
       cx="498"
       cy="131"
       opacity="0.92"
       id="circle415" />
    <circle
       r="6"
       cx="646"
       cy="252"
       opacity="0.92"
       id="circle416" />
    <circle
       r="6.5"
       cx="685"
       cy="439"
       opacity="0.92"
       id="circle417" />
    <circle
       r="6.5"
       cx="598"
       cy="610"
       opacity="0.92"
       id="circle418" />
    <circle
       r="6.5"
       cx="421"
       cy="688"
       opacity="0.93"
       id="circle419" />
    <circle
       r="6.5"
       cx="235"
       cy="638"
       opacity="0.93"
       id="circle420" />
    <circle
       r="6.5"
       cx="121"
       cy="482"
       opacity="0.93"
       id="circle421" />
    <circle
       r="6.5"
       cx="131"
       cy="288"
       opacity="0.93"
       id="circle422" />
    <circle
       r="6.5"
       cx="261"
       cy="143"
       opacity="0.93"
       id="circle423" />
    <circle
       r="6.5"
       cx="454"
       cy="112"
       opacity="0.94"
       id="circle424" />
    <circle
       r="6.5"
       cx="623"
       cy="210"
       opacity="0.94"
       id="circle425" />
    <circle
       r="6.5"
       cx="694"
       cy="392"
       opacity="0.94"
       id="circle426" />
    <circle
       r="6.5"
       cx="634"
       cy="579"
       opacity="0.94"
       id="circle427" />
    <circle
       r="6.5"
       cx="469"
       cy="687"
       opacity="0.94"
       id="circle428" />
    <circle
       r="6.5"
       cx="273"
       cy="668"
       opacity="0.95"
       id="circle429" />
    <circle
       r="6.5"
       cx="133"
       cy="529"
       opacity="0.95"
       id="circle430" />
    <circle
       r="6.5"
       cx="111"
       cy="332"
       opacity="0.95"
       id="circle431" />
    <circle
       r="6.5"
       cx="217"
       cy="164"
       opacity="0.95"
       id="circle432" />
    <circle
       r="6.5"
       cx="406"
       cy="101"
       opacity="0.95"
       id="circle433" />
    <circle
       r="6.5"
       cx="593"
       cy="171"
       opacity="0.96"
       id="circle434" />
    <circle
       r="6.5"
       cx="695"
       cy="343"
       opacity="0.96"
       id="circle435" />
    <circle
       r="6.5"
       cx="665"
       cy="542"
       opacity="0.96"
       id="circle436" />
    <circle
       r="6.5"
       cx="518"
       cy="678"
       opacity="0.96"
       id="circle437" />
    <circle
       r="6.5"
       cx="317"
       cy="690"
       opacity="0.96"
       id="circle438" />
    <circle
       r="6.5"
       cx="152"
       cy="574"
       opacity="0.97"
       id="circle439" />
    <circle
       r="6.5"
       cx="97"
       cy="379"
       opacity="0.97"
       id="circle440" />
    <circle
       r="6.5"
       cx="177"
       cy="193"
       opacity="0.97"
       id="circle441" />
    <circle
       r="6.5"
       cx="357"
       cy="98"
       opacity="0.97"
       id="circle442" />
    <circle
       r="6.5"
       cx="557"
       cy="138"
       opacity="0.97"
       id="circle443" />
    <circle
       r="6.5"
       cx="687"
       cy="294"
       opacity="0.98"
       id="circle444" />
    <circle
       r="6.5"
       cx="691"
       cy="499"
       opacity="0.98"
       id="circle445" />
    <circle
       r="6.5"
       cx="564"
       cy="660"
       opacity="0.98"
       id="circle446" />
    <circle
       r="6.5"
       cx="364"
       cy="706"
       opacity="0.98"
       id="circle447" />
    <circle
       r="6.5"
       cx="179"
       cy="616"
       opacity="0.98"
       id="circle448" />
    <circle
       r="6.5"
       cx="92"
       cy="429"
       opacity="0.99"
       id="circle449" />
    <circle
       r="6.5"
       cx="141"
       cy="229"
       opacity="0.99"
       id="circle450" />
    <circle
       r="6.5"
       cx="307"
       cy="103"
       opacity="0.99"
       id="circle451" />
    <circle
       r="6.5"
       cx="514"
       cy="110"
       opacity="0.99"
       id="circle452" />
    <circle
       r="6.5"
       cx="672"
       cy="246"
       opacity="0.99"
       id="circle453" />
    <circle
       r="6.5"
       cx="709"
       cy="451"
       opacity="1"
       id="circle454" />
    <circle
       r="6.5"
       cx="608"
       cy="634"
       opacity="1"
       id="circle455" />
    <circle
       r="6.5"
       cx="415"
       cy="714"
       opacity="1"
       id="circle456" />
  </g>
</svg>
