<?xml version="1.0" encoding="UTF-8" standalone="no"?>
<svg
   id="visual"
   viewBox="0 0 960 50.519997"
   width="960"
   height="50.519997"
   version="1.1"
   xmlns="http://www.w3.org/2000/svg"
   xmlns:svg="http://www.w3.org/2000/svg">
  <path
     d="m 0,52 53.3,4.8 c 53.4,4.9 160,14.5 266.7,19.7 106.7,5.2 213.3,5.8 320,5.2 C 746.7,81 853.3,79 906.7,78 L 960,77 v 25.5 H 906.7 640 320 53.3 0 Z"
     fill="#FFC9B0"
     id="path4"
     transform="translate(0,-52)" />
  <path
     d="m 0,66 53.3,3.3 c 53.4,3.4 160,10 266.7,10.4 106.7,0.3 213.3,-5.7 320,-3.4 106.7,2.4 213.3,13 266.7,18.4 L 960,100 v 2.5 H 906.7 640 320 53.3 0 Z"
     fill="#FFC0A4"
     id="path5"
     transform="translate(0,-52)" />
  <path
     d="m 0,82 53.3,5 c 53.4,5 160,15 266.7,15.5 C 426.7,103 533.3,94 640,89.5 746.7,85 853.3,85 906.7,85 H 960 v 17.5 H 906.7 640 320 53.3 0 Z"
     fill="#FFB797"
     id="path6"
     transform="translate(0,-52)" />
</svg>
