<?xml version="1.0" encoding="UTF-8" standalone="no"?>
<svg
   id="visual"
   viewBox="0 0 960 46.996277"
   width="960"
   height="46.996277"
   version="1.1"
   xmlns="http://www.w3.org/2000/svg"
   xmlns:svg="http://www.w3.org/2000/svg">
  <path
     d="m 0,120 53.3,-3.3 c 53.4,-3.4 160,-10 266.7,-12 106.7,-2 213.3,0.6 320,4.1 106.7,3.5 213.3,7.9 266.7,10 L 960,121 v 30 h -53.3 c -53.4,0 -160,0 -266.7,0 -106.7,0 -213.3,0 -320,0 -106.7,0 -213.3,0 -266.7,0 H 0 Z"
     fill="#FDAD8B"
     id="path7"
     transform="translate(0,-104.00372)" />
  <path
     d="m 0,127 53.3,-0.7 c 53.4,-0.6 160,-2 266.7,-4 106.7,-2 213.3,-4.6 320,-3.6 106.7,1 213.3,5.6 266.7,8 L 960,129 v 22 h -53.3 c -53.4,0 -160,0 -266.7,0 -106.7,0 -213.3,0 -320,0 -106.7,0 -213.3,0 -266.7,0 H 0 Z"
     fill="#F9A37E"
     id="path8"
     transform="translate(0,-104.00372)" />
  <path
     d="m 0,123 53.3,1.8 c 53.4,1.9 160,5.5 266.7,8.5 106.7,3 213.3,5.4 320,4.4 106.7,-1 213.3,-5.4 266.7,-7.5 L 960,128 v 23 h -53.3 c -53.4,0 -160,0 -266.7,0 -106.7,0 -213.3,0 -320,0 -106.7,0 -213.3,0 -266.7,0 H 0 Z"
     fill="#F3976F"
     id="path9"
     transform="translate(0,-104.00372)" />
</svg>
