<?xml version="1.0" encoding="UTF-8" standalone="no"?>
<svg
   id="visual"
   viewBox="0 0 960 69.300003"
   width="960"
   height="69.300003"
   version="1.1"
   xmlns="http://www.w3.org/2000/svg"
   xmlns:svg="http://www.w3.org/2000/svg">
  <path
     d="M 0,46 53.3,40.5 C 106.7,35 213.3,24 320,22.5 426.7,21 533.3,29 640,28 746.7,27 853.3,17 906.7,12 L 960,7 V 76.3 H 906.7 640 320 53.3 0 Z"
     fill="#FFEEDF"
     id="path1"
     transform="translate(0,-7)" />
  <path
     d="m 0,31 53.3,2.3 c 53.4,2.4 160,7 266.7,10.5 106.7,3.5 213.3,5.9 320,8.7 106.7,2.8 213.3,6.2 266.7,7.8 L 960,62 V 76.3 H 906.7 640 320 53.3 0 Z"
     fill="#FFDFCD"
     id="path2"
     transform="translate(0,-7)" />
  <path
     d="m 0,72 53.3,-2 c 53.4,-2 160,-6 266.7,-10 106.7,-4 213.3,-8 320,-7.8 106.7,0.1 213.3,4.5 266.7,6.6 L 960,61 V 76.3 H 906.7 640 320 53.3 0 Z"
     fill="#FFD3BE"
     id="path3"
     transform="translate(0,-7)" />
</svg>
