<?xml version="1.0" encoding="UTF-8" standalone="no"?>
<svg
   id="waves"
   viewBox="0 0 960 145"
   width="960"
   height="145"
   version="1.1"
   xmlns="http://www.w3.org/2000/svg"
   xmlns:svg="http://www.w3.org/2000/svg">
  <defs
     id="defs4" />
  <path
     d="m 0,400 22.8,-0.3 c 22.9,-0.4 68.5,-1 114.2,2.1 45.7,3.2 91.3,10.2 137,11 45.7,0.9 91.3,-4.5 137.2,-3.3 45.8,1.2 91.8,8.8 137.6,13.7 45.9,4.8 91.5,6.8 137.2,2.6 45.7,-4.1 91.3,-14.5 137,-20.5 45.7,-6 91.3,-7.6 114.2,-8.5 L 960,396 v 145 h -22.8 c -22.9,0 -68.5,0 -114.2,0 -45.7,0 -91.3,0 -137,0 -45.7,0 -91.3,0 -137.2,0 -45.8,0 -91.8,0 -137.6,0 -45.9,0 -91.5,0 -137.2,0 -45.7,0 -91.3,0 -137,0 -45.7,0 -91.3,0 -114.2,0 H 0 Z"
     fill="#fee9e2"
     id="path1"
     transform="translate(0,-396)" />
  <path
     d="m 0,453 22.8,-0.8 c 22.9,-0.9 68.5,-2.5 114.2,-6 45.7,-3.5 91.3,-8.9 137,-10.4 45.7,-1.5 91.3,0.9 137.2,3.9 45.8,3 91.8,6.6 137.6,10.1 45.9,3.5 91.5,6.9 137.2,7.7 45.7,0.8 91.3,-0.8 137,-4.3 45.7,-3.5 91.3,-8.9 114.2,-11.5 L 960,439 v 102 h -22.8 c -22.9,0 -68.5,0 -114.2,0 -45.7,0 -91.3,0 -137,0 -45.7,0 -91.3,0 -137.2,0 -45.8,0 -91.8,0 -137.6,0 -45.9,0 -91.5,0 -137.2,0 -45.7,0 -91.3,0 -137,0 -45.7,0 -91.3,0 -114.2,0 H 0 Z"
     fill="#fed8ca"
     id="path2"
     transform="translate(0,-396)" />
  <path
     d="m 0,473 h 22.8 c 22.9,0 68.5,0 114.2,-0.3 45.7,-0.4 91.3,-1 137,1.5 45.7,2.5 91.3,8.1 137.2,9.1 45.8,1 91.8,-2.6 137.6,-4.6 45.9,-2 91.5,-2.4 137.2,-4.7 45.7,-2.3 91.3,-6.7 137,-6 45.7,0.7 91.3,6.3 114.2,9.2 L 960,480 v 61 h -22.8 c -22.9,0 -68.5,0 -114.2,0 -45.7,0 -91.3,0 -137,0 -45.7,0 -91.3,0 -137.2,0 -45.8,0 -91.8,0 -137.6,0 -45.9,0 -91.5,0 -137.2,0 -45.7,0 -91.3,0 -137,0 -45.7,0 -91.3,0 -114.2,0 H 0 Z"
     fill="#fcbca5"
     id="path3"
     transform="translate(0,-396)" />
  <path
     d="m 0,502 22.8,2.2 c 22.9,2.1 68.5,6.5 114.2,8.1 45.7,1.7 91.3,0.7 137,0.4 45.7,-0.4 91.3,0 137.2,0.1 45.8,0.2 91.8,0.2 137.6,1.7 45.9,1.5 91.5,4.5 137.2,5.2 45.7,0.6 91.3,-1 137,-3.9 45.7,-2.8 91.3,-6.8 114.2,-8.8 l 22.8,-2 v 36 h -22.8 c -22.9,0 -68.5,0 -114.2,0 -45.7,0 -91.3,0 -137,0 -45.7,0 -91.3,0 -137.2,0 -45.8,0 -91.8,0 -137.6,0 -45.9,0 -91.5,0 -137.2,0 -45.7,0 -91.3,0 -137,0 -45.7,0 -91.3,0 -114.2,0 H 0 Z"
   fill="#f89571"     
     id="path4"
     transform="translate(0,-396)" />
</svg>
